<?xml version="1.0" encoding="UTF-8"?>
<svg xmlns="http://www.w3.org/2000/svg" width="250" height="159" viewBox="0 0 250 159" fill="none">
  <path d="M236.22 158.27C249.36 158.27 249.36 122.73 249.36 80.86C249.36 38.99 236.64 0 183.97 0C131.3 0 101.54 56.19 58.3404 52C15.1404 47.81 0.00043668 71.67 0.00043668 90C0.00043668 108.33 -0.419554 158.44 24.7904 158.44C50.0004 158.44 236.22 158.29 236.22 158.29" fill="#F3F4F7"></path>
  <path d="M46.3716 123.377C46.4069 122.705 45.89 122.13 45.2171 122.095C44.5442 122.06 43.9702 122.577 43.9349 123.25L42.1592 157.133C42.1239 157.806 42.6408 158.38 43.3137 158.415C43.9865 158.451 44.5606 157.934 44.5958 157.261L46.3716 123.377Z" fill="#AF9387" stroke="#AF9387" stroke-width="0.75" stroke-miterlimit="10"></path>
  <path d="M76.9187 157.27C76.954 157.943 77.528 158.46 78.2009 158.424C78.8737 158.389 79.3906 157.815 79.3553 157.142L77.5796 123.259C77.5443 122.586 76.9703 122.069 76.2974 122.104C75.6245 122.14 75.1077 122.714 75.1429 123.386L76.9187 157.27Z" fill="#AF9387" stroke="#AF9387" stroke-width="0.75" stroke-miterlimit="10"></path>
  <path d="M74.9805 105.77C74.9805 105.77 69.9805 111.77 69.9805 118.3H51.5805C51.5805 111.74 46.5805 105.77 46.5805 105.77C42.8405 102.11 37.9105 83.6998 46.8505 86.1398C55.7905 88.5798 60.8505 88.1398 60.8505 88.1398C60.8505 88.1398 65.8505 88.5898 74.8505 86.1398C83.8505 83.6898 78.7205 102.07 74.9805 105.77Z" stroke="#AF9387" stroke-width="3" stroke-linejoin="round"></path>
  <path d="M50.9104 86.99L56.0104 118.3" stroke="#AF9387" stroke-width="3" stroke-linejoin="round"></path>
  <path d="M70.3605 86.99L65.2605 118.3" stroke="#AF9387" stroke-width="3" stroke-linejoin="round"></path>
  <path d="M60.7505 88.1399V97.0899V107.45V118.76" stroke="#AF9387" stroke-width="3" stroke-linejoin="round"></path>
  <path d="M60.7505 129.49C39.1405 129.49 39.7505 121.77 41.6105 119.72C43.4705 117.67 51.5505 118.3 51.5505 118.3H69.9505C69.9505 118.3 77.9505 117.66 79.8905 119.72C81.8305 121.78 82.3605 129.49 60.7505 129.49Z" fill="#A58375"></path>
  <path d="M103.903 123.378C103.938 122.705 103.421 122.131 102.748 122.096C102.075 122.061 101.501 122.578 101.466 123.251L99.6904 157.134C99.6552 157.807 100.172 158.381 100.845 158.416C101.518 158.452 102.092 157.935 102.127 157.262L103.903 123.378Z" fill="#AF9387" stroke="#AF9387" stroke-width="0.75" stroke-miterlimit="10"></path>
  <path d="M134.447 157.271C134.483 157.944 135.057 158.461 135.73 158.425C136.403 158.39 136.919 157.816 136.884 157.143L135.108 123.26C135.073 122.587 134.499 122.07 133.826 122.105C133.153 122.14 132.636 122.714 132.672 123.387L134.447 157.271Z" fill="#AF9387" stroke="#AF9387" stroke-width="0.75" stroke-miterlimit="10"></path>
  <path d="M132.511 105.77C132.511 105.77 127.511 111.77 127.511 118.3H109.111C109.111 111.74 104.111 105.77 104.111 105.77C100.371 102.11 95.4405 83.6998 104.381 86.1398C113.321 88.5798 118.381 88.1398 118.381 88.1398C118.381 88.1398 123.381 88.5898 132.381 86.1398C141.381 83.6898 136.251 102.07 132.511 105.77Z" stroke="#AF9387" stroke-width="3" stroke-linejoin="round"></path>
  <path d="M108.44 86.99L113.54 118.3" stroke="#AF9387" stroke-width="3" stroke-linejoin="round"></path>
  <path d="M127.891 86.99L122.791 118.3" stroke="#AF9387" stroke-width="3" stroke-linejoin="round"></path>
  <path d="M118.281 88.1399V97.0899V107.45V118.76" stroke="#AF9387" stroke-width="3" stroke-linejoin="round"></path>
  <path d="M118.281 129.49C96.6705 129.49 97.2805 121.77 99.1405 119.72C101.001 117.67 109.081 118.3 109.081 118.3H127.481C127.481 118.3 135.481 117.66 137.421 119.72C139.361 121.78 139.891 129.49 118.281 129.49Z" fill="#A58375"></path>
  <path d="M236.23 151.6H182.99C181.726 151.6 180.7 152.625 180.7 153.89V155.98C180.7 157.245 181.726 158.27 182.99 158.27H236.23C237.495 158.27 238.52 157.245 238.52 155.98V153.89C238.52 152.625 237.495 151.6 236.23 151.6Z" fill="#B18A6F"></path>
  <path d="M236.23 102.41H182.99C181.726 102.41 180.7 103.435 180.7 104.7V106.79C180.7 108.055 181.726 109.08 182.99 109.08H236.23C237.495 109.08 238.52 108.055 238.52 106.79V104.7C238.52 103.435 237.495 102.41 236.23 102.41Z" fill="#B18A6F"></path>
  <path d="M234.35 31.49H184.88C183.654 31.49 182.66 32.4839 182.66 33.71V35.94C182.66 37.1661 183.654 38.16 184.88 38.16H234.35C235.576 38.16 236.57 37.1661 236.57 35.94V33.71C236.57 32.4839 235.576 31.49 234.35 31.49Z" fill="#B18A6F"></path>
  <path d="M235.88 109.08H183.35V151.61H235.88V109.08Z" fill="#C99D7D"></path>
  <path d="M233.31 38.1599H185.91V102.41H233.31V38.1599Z" fill="#C99D7D"></path>
  <path d="M229.67 138.4H188.74C187.791 138.4 187.021 139.17 187.021 140.12V146.15C187.021 147.1 187.791 147.87 188.74 147.87H229.67C230.62 147.87 231.391 147.1 231.391 146.15V140.12C231.391 139.17 230.62 138.4 229.67 138.4Z" fill="#DDAE89"></path>
  <path d="M229.67 125.67H188.74C187.791 125.67 187.021 126.44 187.021 127.39V133.42C187.021 134.37 187.791 135.14 188.74 135.14H229.67C230.62 135.14 231.391 134.37 231.391 133.42V127.39C231.391 126.44 230.62 125.67 229.67 125.67Z" fill="#DDAE89"></path>
  <path d="M205.44 112.99H188.74C187.791 112.99 187.021 113.76 187.021 114.71V120.74C187.021 121.69 187.791 122.46 188.74 122.46H205.44C206.39 122.46 207.161 121.69 207.161 120.74V114.71C207.161 113.76 206.39 112.99 205.44 112.99Z" fill="#DDAE89"></path>
  <path d="M229.67 112.99H212.971C212.021 112.99 211.25 113.76 211.25 114.71V120.74C211.25 121.69 212.021 122.46 212.971 122.46H229.67C230.62 122.46 231.391 121.69 231.391 120.74V114.71C231.391 113.76 230.62 112.99 229.67 112.99Z" fill="#DDAE89"></path>
  <path d="M197.091 119.06C197.831 119.06 198.43 118.46 198.43 117.72C198.43 116.98 197.831 116.38 197.091 116.38C196.35 116.38 195.75 116.98 195.75 117.72C195.75 118.46 196.35 119.06 197.091 119.06Z" fill="#554E47"></path>
  <path d="M221.32 119.06C222.06 119.06 222.66 118.46 222.66 117.72C222.66 116.98 222.06 116.38 221.32 116.38C220.58 116.38 219.98 116.98 219.98 117.72C219.98 118.46 220.58 119.06 221.32 119.06Z" fill="#554E47"></path>
  <path d="M197.091 131.74C197.831 131.74 198.43 131.14 198.43 130.4C198.43 129.66 197.831 129.06 197.091 129.06C196.35 129.06 195.75 129.66 195.75 130.4C195.75 131.14 196.35 131.74 197.091 131.74Z" fill="#554E47"></path>
  <path d="M221.32 131.74C222.06 131.74 222.66 131.14 222.66 130.4C222.66 129.66 222.06 129.06 221.32 129.06C220.58 129.06 219.98 129.66 219.98 130.4C219.98 131.14 220.58 131.74 221.32 131.74Z" fill="#554E47"></path>
  <path d="M197.091 144.48C197.831 144.48 198.43 143.88 198.43 143.14C198.43 142.4 197.831 141.8 197.091 141.8C196.35 141.8 195.75 142.4 195.75 143.14C195.75 143.88 196.35 144.48 197.091 144.48Z" fill="#554E47"></path>
  <path d="M221.32 144.48C222.06 144.48 222.66 143.88 222.66 143.14C222.66 142.4 222.06 141.8 221.32 141.8C220.58 141.8 219.98 142.4 219.98 143.14C219.98 143.88 220.58 144.48 221.32 144.48Z" fill="#554E47"></path>
  <path d="M208.201 40.9099H189.281V99.8599H208.201V40.9099Z" fill="#DDAE89"></path>
  <path d="M229.68 40.9099H210.76V99.8599H229.68V40.9099Z" fill="#DDAE89"></path>
  <path d="M205.56 43.2799H191.93V97.2399H205.56V43.2799Z" fill="#866A55"></path>
  <path d="M205.56 51.95H191.93V53.79H205.56V51.95Z" fill="#B18A6F"></path>
  <path d="M205.56 69.36H191.93V71.2H205.56V69.36Z" fill="#B18A6F"></path>
  <path d="M205.56 86.7799H191.93V88.6199H205.56V86.7799Z" fill="#B18A6F"></path>
  <path d="M227.04 43.2799H213.41V97.2399H227.04V43.2799Z" fill="#866A55"></path>
  <path d="M227.04 51.95H213.41V53.79H227.04V51.95Z" fill="#B18A6F"></path>
  <path d="M227.04 69.36H213.41V71.2H227.04V69.36Z" fill="#B18A6F"></path>
  <path d="M227.04 86.7799H213.41V88.6199H227.04V86.7799Z" fill="#B18A6F"></path>
  <path d="M206.86 64.87V73.06" stroke="#554E47" stroke-width="1.42" stroke-miterlimit="10" stroke-linecap="round"></path>
  <path d="M211.9 64.87V73.06" stroke="#554E47" stroke-width="1.42" stroke-miterlimit="10" stroke-linecap="round"></path>
  <path d="M21.0706 112.36H28.5206V130.07C28.5206 130.484 28.3562 130.881 28.0637 131.173C27.7711 131.466 27.3743 131.63 26.9606 131.63H22.6406C22.2268 131.63 21.83 131.466 21.5375 131.173C21.2449 130.881 21.0806 130.484 21.0806 130.07V112.36H21.0706Z" fill="#4D3023"></path>
  <path d="M22.4103 150.98H27.2003C27.5557 150.98 27.8965 151.121 28.1478 151.372C28.3991 151.624 28.5403 151.965 28.5403 152.32V154.7C28.5403 155.188 28.4441 155.672 28.2571 156.124C28.0702 156.575 27.7962 156.985 27.4507 157.33C27.1053 157.676 26.6952 157.95 26.2439 158.137C25.7926 158.324 25.3088 158.42 24.8203 158.42V158.42C24.3318 158.42 23.8481 158.324 23.3967 158.137C22.9454 157.95 22.5353 157.676 22.1899 157.33C21.8444 156.985 21.5704 156.575 21.3835 156.124C21.1965 155.672 21.1003 155.188 21.1003 154.7V152.32C21.1003 151.965 21.2415 151.624 21.4928 151.372C21.7441 151.121 22.0849 150.98 22.4403 150.98H22.4103Z" fill="#573728"></path>
  <path d="M26.9704 131.63H22.6204V150.97H26.9704V131.63Z" fill="#66402F"></path>
  <path d="M151.69 112.36H159.14V130.07C159.14 130.484 158.976 130.881 158.684 131.173C158.391 131.466 157.994 131.63 157.58 131.63H153.26C152.847 131.63 152.45 131.466 152.157 131.173C151.865 130.881 151.7 130.484 151.7 130.07V112.36H151.69Z" fill="#4D3023"></path>
  <path d="M153.03 150.98H157.8C158.156 150.98 158.497 151.121 158.748 151.372C158.999 151.624 159.14 151.965 159.14 152.32V154.7C159.14 155.188 159.044 155.672 158.857 156.124C158.67 156.575 158.396 156.985 158.051 157.33C157.705 157.676 157.295 157.95 156.844 158.137C156.393 158.324 155.909 158.42 155.42 158.42V158.42C154.932 158.42 154.448 158.324 153.997 158.137C153.546 157.95 153.135 157.676 152.79 157.33C152.445 156.985 152.171 156.575 151.984 156.124C151.797 155.672 151.7 155.188 151.7 154.7V152.32C151.7 151.966 151.84 151.627 152.089 151.376C152.338 151.125 152.677 150.983 153.03 150.98V150.98Z" fill="#573728"></path>
  <path d="M157.591 131.63H153.24V150.97H157.591V131.63Z" fill="#66402F"></path>
  <path d="M167.211 106.8H12.9905C11.2508 106.8 9.84058 108.208 9.84058 109.945C9.84058 111.682 11.2508 113.09 12.9905 113.09H167.211C168.95 113.09 170.361 111.682 170.361 109.945C170.361 108.208 168.95 106.8 167.211 106.8Z" fill="#66402F"></path>
  <path d="M18.4904 113.09H161.72V115.09C161.72 115.52 161.55 115.932 161.246 116.235C160.942 116.539 160.53 116.71 160.1 116.71H20.1005C19.6708 116.71 19.2588 116.539 18.955 116.235C18.6511 115.932 18.4805 115.52 18.4805 115.09V113.09H18.4904Z" fill="#573728"></path>
  <path d="M132.18 152.19L134.53 155.76L136.96 153.89L134.94 151.2L132.18 152.19Z" fill="#646162"></path>
  <path d="M135.13 158.43C136.6 158.43 137.79 157.239 137.79 155.77C137.79 154.301 136.6 153.11 135.13 153.11C133.661 153.11 132.47 154.301 132.47 155.77C132.47 157.239 133.661 158.43 135.13 158.43Z" fill="#AAABAB"></path>
  <path d="M135.13 157.48C136.075 157.48 136.84 156.714 136.84 155.77C136.84 154.825 136.075 154.06 135.13 154.06C134.186 154.06 133.42 154.825 133.42 155.77C133.42 156.714 134.186 157.48 135.13 157.48Z" fill="#696969"></path>
  <path d="M194.64 152.19L196.99 155.76L199.43 153.89L197.4 151.2L194.64 152.19Z" fill="#646162"></path>
  <path d="M197.59 158.43C199.06 158.43 200.25 157.239 200.25 155.77C200.25 154.301 199.06 153.11 197.59 153.11C196.121 153.11 194.93 154.301 194.93 155.77C194.93 157.239 196.121 158.43 197.59 158.43Z" fill="#AAABAB"></path>
  <path d="M197.59 157.48C198.535 157.48 199.3 156.714 199.3 155.77C199.3 154.825 198.535 154.06 197.59 154.06C196.646 154.06 195.88 154.825 195.88 155.77C195.88 156.714 196.646 157.48 197.59 157.48Z" fill="#696969"></path>
  <path d="M134.73 145.28H197.45" stroke="#969595" stroke-width="2" stroke-miterlimit="10"></path>
  <path d="M197.44 150.98V105.98C197.44 104.306 196.776 102.701 195.592 101.518C194.409 100.335 192.804 99.6699 191.13 99.6699H141.04C140.211 99.6686 139.39 99.831 138.624 100.148C137.858 100.464 137.162 100.929 136.576 101.515C135.989 102.101 135.525 102.797 135.208 103.564C134.891 104.33 134.729 105.151 134.73 105.98V150.98" stroke="#AAABAB" stroke-width="2" stroke-linecap="round" stroke-linejoin="round"></path>
  <path d="M137.3 150.55H132.161C131.669 150.55 131.271 150.948 131.271 151.44V151.45C131.271 151.941 131.669 152.34 132.161 152.34H137.3C137.792 152.34 138.19 151.941 138.19 151.45V151.44C138.19 150.948 137.792 150.55 137.3 150.55Z" fill="#AAABAB"></path>
  <path d="M200.021 150.98H194.88C194.389 150.98 193.99 151.378 193.99 151.87V151.88C193.99 152.372 194.389 152.77 194.88 152.77H200.021C200.512 152.77 200.911 152.372 200.911 151.88V151.87C200.911 151.378 200.512 150.98 200.021 150.98Z" fill="#AAABAB"></path>
  <path d="M197.45 106.23H134.73V110.04H197.45V106.23Z" fill="#7B5843"></path>
  <path d="M197.45 127.61H134.73V131.42H197.45V127.61Z" fill="#7B5843"></path>
  <path d="M198.32 104.92H196.56C195.809 104.92 195.2 105.529 195.2 106.28V109.99C195.2 110.741 195.809 111.35 196.56 111.35H198.32C199.072 111.35 199.68 110.741 199.68 109.99V106.28C199.68 105.529 199.072 104.92 198.32 104.92Z" fill="#969595"></path>
  <path d="M135.61 104.92H133.851C133.099 104.92 132.49 105.529 132.49 106.28V109.99C132.49 110.741 133.099 111.35 133.851 111.35H135.61C136.362 111.35 136.971 110.741 136.971 109.99V106.28C136.971 105.529 136.362 104.92 135.61 104.92Z" fill="#969595"></path>
  <path d="M198.32 126.3H196.56C195.809 126.3 195.2 126.909 195.2 127.66V131.37C195.2 132.121 195.809 132.73 196.56 132.73H198.32C199.072 132.73 199.68 132.121 199.68 131.37V127.66C199.68 126.909 199.072 126.3 198.32 126.3Z" fill="#969595"></path>
  <path d="M135.61 126.3H133.851C133.099 126.3 132.49 126.909 132.49 127.66V131.37C132.49 132.121 133.099 132.73 133.851 132.73H135.61C136.362 132.73 136.971 132.121 136.971 131.37V127.66C136.971 126.909 136.362 126.3 135.61 126.3Z" fill="#969595"></path>
  <path d="M152.79 89.2899C153.965 89.2899 155.092 89.7567 155.923 90.5875C156.754 91.4182 157.22 92.545 157.22 93.7199V104.67C157.22 105.084 157.056 105.48 156.763 105.773C156.471 106.066 156.074 106.23 155.66 106.23H149.92C149.507 106.23 149.11 106.066 148.817 105.773C148.525 105.48 148.36 105.084 148.36 104.67V93.7199C148.36 93.1382 148.475 92.5621 148.698 92.0247C148.92 91.4872 149.247 90.9988 149.658 90.5875C150.069 90.1761 150.558 89.8498 151.095 89.6271C151.633 89.4045 152.209 89.2899 152.79 89.2899V89.2899Z" fill="#C6C6C6"></path>
  <path d="M154.271 86.76H151.321V92.98H154.271V86.76Z" fill="#C6C6C6"></path>
  <path d="M154.34 85.95H151.2C151.062 85.95 150.95 86.0619 150.95 86.2V86.52C150.95 86.658 151.062 86.77 151.2 86.77H154.34C154.479 86.77 154.59 86.658 154.59 86.52V86.2C154.59 86.0619 154.479 85.95 154.34 85.95Z" fill="#AEADAD"></path>
  <path d="M178.95 92.34C179.149 92.5087 179.308 92.7187 179.417 92.9553C179.526 93.1919 179.581 93.4495 179.58 93.71V104.71C179.591 104.904 179.563 105.098 179.499 105.281C179.434 105.464 179.334 105.633 179.204 105.777C179.073 105.921 178.916 106.038 178.74 106.121C178.565 106.204 178.374 106.251 178.18 106.26H173.06C172.67 106.239 172.303 106.065 172.04 105.774C171.778 105.484 171.641 105.101 171.66 104.71V93.71C171.659 93.4495 171.715 93.1919 171.824 92.9553C171.933 92.7187 172.092 92.5087 172.29 92.34L174.22 90.6799V86.5699H177.03V90.6799L178.95 92.34Z" fill="#8DB1C7"></path>
  <path d="M176.9 86.35H174.35C174.124 86.35 173.94 86.5336 173.94 86.76V89.57C173.94 89.7964 174.124 89.98 174.35 89.98H176.9C177.127 89.98 177.31 89.7964 177.31 89.57V86.76C177.31 86.5336 177.127 86.35 176.9 86.35Z" fill="#616262"></path>
  <path d="M157.22 95.6699H148.36V98.9899H157.22V95.6699Z" fill="#AFAFB0"></path>
  <path d="M177.981 93.88H173.281V104.11H177.981V93.88Z" fill="#EAEAEA"></path>
  <path d="M167.081 89.8199C167.481 90.1699 167.711 93.18 167.711 93.71L166.881 104.71C166.891 104.904 166.864 105.098 166.799 105.281C166.734 105.464 166.634 105.633 166.504 105.777C166.374 105.921 166.216 106.038 166.04 106.121C165.865 106.204 165.675 106.251 165.481 106.26H162.031C161.64 106.239 161.273 106.065 161.01 105.774C160.748 105.484 160.611 105.101 160.631 104.71L159.801 93.71C159.801 93.18 160.031 90.1699 160.431 89.8199L162.361 88.1599V86.5699H165.171V88.1599L167.081 89.8199Z" fill="#517D5B"></path>
  <path d="M167.08 92.99H160.44V95.07H167.08V92.99Z" fill="#EAEAEA"></path>
  <path d="M165.23 85.95H162.29C162.097 85.95 161.94 86.1067 161.94 86.3V87.16C161.94 87.3533 162.097 87.51 162.29 87.51H165.23C165.424 87.51 165.58 87.3533 165.58 87.16V86.3C165.58 86.1067 165.424 85.95 165.23 85.95Z" fill="#616262"></path>
  <path d="M143.021 125.95H150.93V126.75C150.93 126.978 150.84 127.197 150.679 127.358C150.517 127.519 150.299 127.61 150.07 127.61H143.891C143.662 127.61 143.444 127.519 143.282 127.358C143.121 127.197 143.031 126.978 143.031 126.75V125.95H143.021Z" fill="#C3C3C3"></path>
  <path d="M143.88 119.51H150.06C150.289 119.51 150.507 119.6 150.669 119.762C150.83 119.923 150.92 120.142 150.92 120.37V125.94H143.01V120.37C143.01 120.256 143.033 120.144 143.077 120.039C143.121 119.934 143.185 119.838 143.266 119.758C143.347 119.678 143.443 119.615 143.548 119.573C143.654 119.53 143.767 119.509 143.88 119.51V119.51Z" fill="#DADBDA"></path>
  <path d="M154.291 125.95H162.201V126.75C162.201 126.978 162.11 127.197 161.949 127.358C161.787 127.519 161.569 127.61 161.341 127.61H155.201C154.972 127.61 154.754 127.519 154.592 127.358C154.431 127.197 154.341 126.978 154.341 126.75V125.95H154.291Z" fill="#C3C3C3"></path>
  <path d="M155.2 119.51H161.38C161.608 119.51 161.827 119.6 161.988 119.762C162.15 119.923 162.24 120.142 162.24 120.37V125.94H154.33V120.37C154.33 120.256 154.353 120.144 154.397 120.039C154.441 119.934 154.505 119.838 154.586 119.758C154.667 119.678 154.763 119.615 154.868 119.573C154.974 119.53 155.087 119.509 155.2 119.51V119.51Z" fill="#DADBDA"></path>
  <path d="M165.571 125.95H173.481V126.75C173.481 126.978 173.39 127.197 173.229 127.358C173.067 127.519 172.849 127.61 172.621 127.61H166.441C166.212 127.61 165.994 127.519 165.832 127.358C165.671 127.197 165.581 126.978 165.581 126.75V125.95H165.571Z" fill="#C3C3C3"></path>
  <path d="M166.43 119.51H172.61C172.838 119.51 173.057 119.6 173.218 119.762C173.38 119.923 173.47 120.142 173.47 120.37V125.94H165.56V120.37C165.56 120.256 165.583 120.144 165.627 120.039C165.671 119.934 165.735 119.838 165.816 119.758C165.897 119.678 165.993 119.615 166.098 119.573C166.204 119.53 166.317 119.509 166.43 119.51V119.51Z" fill="#DADBDA"></path>
  <path d="M190.53 127.61H180.68L178.68 113.78H192.53L190.53 127.61Z" fill="#989898"></path>
</svg>
