<?xml version="1.0" encoding="UTF-8"?>
<svg xmlns="http://www.w3.org/2000/svg" width="250" height="159" viewBox="0 0 250 159" fill="none">
  <path d="M224.52 158.32C245.89 158.32 249.33 108.17 249.33 71.1C249.33 34.03 159.33 0 106 0C52.67 0 0 77.62 0 113.53C0 149.44 6.64 158.32 18.53 158.32H224.52Z" fill="#F3F4F7"></path>
  <path d="M158.33 34.74H158.32C157.066 34.74 156.05 35.7563 156.05 37.01V155.55C156.05 156.804 157.066 157.82 158.32 157.82H158.33C159.584 157.82 160.6 156.804 160.6 155.55V37.01C160.6 35.7563 159.584 34.74 158.33 34.74Z" fill="#4F4F4F"></path>
  <path d="M209.86 41.81H106.79V46.99H209.86V41.81Z" fill="#3D3D3D"></path>
  <path d="M209.86 77.47H106.79V82.65H209.86V77.47Z" fill="#3D3D3D"></path>
  <path d="M209.86 113.13H106.79V118.31H209.86V113.13Z" fill="#3D3D3D"></path>
  <path d="M209.86 148.8H106.79V153.98H209.86V148.8Z" fill="#3D3D3D"></path>
  <path d="M104.52 34.74H104.51C103.256 34.74 102.24 35.7563 102.24 37.01V155.55C102.24 156.804 103.256 157.82 104.51 157.82H104.52C105.774 157.82 106.79 156.804 106.79 155.55V37.01C106.79 35.7563 105.774 34.74 104.52 34.74Z" fill="#4F4F4F"></path>
  <path d="M212.14 34.74H212.13C210.876 34.74 209.86 35.7563 209.86 37.01V155.55C209.86 156.804 210.876 157.82 212.13 157.82H212.14C213.394 157.82 214.41 156.804 214.41 155.55V37.01C214.41 35.7563 213.394 34.74 212.14 34.74Z" fill="#4F4F4F"></path>
  <path d="M104.52 44.4L212.14 80.06L104.52 115.72L212.14 152.36" stroke="#4F4F4F" stroke-miterlimit="10"></path>
  <path d="M212.14 44.4L104.52 80.06L212.14 115.72L104.52 152.36" stroke="#4F4F4F" stroke-miterlimit="10"></path>
  <path d="M73.4401 87.73H61.1901C60.6875 87.73 60.28 88.1374 60.28 88.64V90.33C60.28 90.8326 60.6875 91.2401 61.1901 91.2401H73.4401C73.9426 91.2401 74.35 90.8326 74.35 90.33V88.64C74.35 88.1374 73.9426 87.73 73.4401 87.73Z" fill="#969698"></path>
  <path d="M153.57 98.15H146C145.249 98.15 144.64 98.7588 144.64 99.5099V153.49C144.64 154.241 145.249 154.85 146 154.85H153.57C154.321 154.85 154.93 154.241 154.93 153.49V99.5099C154.93 98.7588 154.321 98.15 153.57 98.15Z" fill="#AEADAC"></path>
  <path d="M113.88 123.59C112.701 123.587 111.57 123.118 110.736 122.284C109.903 121.45 109.433 120.319 109.43 119.14V105.14H139.87V119.14C139.868 120.319 139.398 121.45 138.564 122.284C137.73 123.118 136.6 123.587 135.42 123.59H113.88Z" fill="#AEADAC"></path>
  <path d="M138.87 106.1V119.1C138.868 120.014 138.503 120.89 137.857 121.537C137.21 122.183 136.334 122.547 135.42 122.55H113.88C112.966 122.547 112.09 122.183 111.444 121.537C110.797 120.89 110.433 120.014 110.43 119.1V106.1H138.87ZM140.87 104.1H108.43V119.1C108.433 120.545 109.008 121.929 110.029 122.951C111.051 123.972 112.436 124.547 113.88 124.55H135.42C136.865 124.547 138.249 123.972 139.271 122.951C140.292 121.929 140.868 120.545 140.87 119.1V104.1Z" fill="#969595"></path>
  <path d="M34.96 98.15H27.39C26.6389 98.15 26.03 98.7588 26.03 99.5099V153.49C26.03 154.241 26.6389 154.85 27.39 154.85H34.96C35.7111 154.85 36.3201 154.241 36.3201 153.49V99.5099C36.3201 98.7588 35.7111 98.15 34.96 98.15Z" fill="#AEADAC"></path>
  <path d="M163.57 98.15H17.3802C15.1821 98.15 13.4001 99.9319 13.4001 102.13C13.4001 104.328 15.1821 106.11 17.3802 106.11H163.57C165.768 106.11 167.55 104.328 167.55 102.13C167.55 99.9319 165.768 98.15 163.57 98.15Z" fill="#A38067"></path>
  <path d="M144.65 146.88H36.3201V151.2H144.65V146.88Z" fill="#A38067"></path>
  <path d="M130.53 109.14H118.78C118.112 109.14 117.57 109.682 117.57 110.35C117.57 111.018 118.112 111.56 118.78 111.56H130.53C131.198 111.56 131.74 111.018 131.74 110.35C131.74 109.682 131.198 109.14 130.53 109.14Z" fill="#6C6C6B"></path>
  <path d="M70.3702 96.73H64.2902C63.6661 96.73 63.1602 97.236 63.1602 97.86V106.21C63.1602 106.834 63.6661 107.34 64.2902 107.34H70.3702C70.9943 107.34 71.5002 106.834 71.5002 106.21V97.86C71.5002 97.236 70.9943 96.73 70.3702 96.73Z" fill="#3C4D79"></path>
  <path d="M64.85 95.06H69.73V100.65C69.73 101.302 69.4709 101.928 69.0095 102.389C68.5482 102.851 67.9225 103.11 67.27 103.11C66.6176 103.11 65.9919 102.851 65.5306 102.389C65.0692 101.928 64.8101 101.302 64.8101 100.65V95.06H64.85Z" fill="#536AA5"></path>
  <path d="M73.7702 89.05V90.32C73.7734 90.7359 73.6855 91.1474 73.5128 91.5257C73.34 91.904 73.0866 92.24 72.7702 92.5099L69.7702 95.0099H64.8502L61.8502 92.5099C61.5336 92.238 61.2801 91.9003 61.1073 91.5203C60.9346 91.1404 60.8469 90.7274 60.8502 90.31V89.05C60.8502 88.8856 60.9155 88.7278 61.0318 88.6115C61.1481 88.4952 61.3057 88.43 61.4702 88.43H73.1902C73.3485 88.4378 73.4975 88.5068 73.6057 88.6225C73.714 88.7382 73.773 88.8916 73.7702 89.05Z" fill="#536AA5"></path>
  <path d="M65.1101 96.95L72.6901 104.53" stroke="#969698" stroke-miterlimit="10"></path>
  <path d="M65.6401 96.42L64.5801 97.48" stroke="#B1B1B4" stroke-width="0.83" stroke-miterlimit="10" stroke-linecap="round"></path>
  <path d="M73.2101 103.95L72.1602 105.01" stroke="#B1B1B4" stroke-width="0.83" stroke-miterlimit="10" stroke-linecap="round"></path>
  <path d="M67.3201 100.28C67.9994 100.28 68.5501 99.7293 68.5501 99.05C68.5501 98.3707 67.9994 97.82 67.3201 97.82C66.6408 97.82 66.0901 98.3707 66.0901 99.05C66.0901 99.7293 66.6408 100.28 67.3201 100.28Z" fill="#B1B1B4"></path>
  <path d="M27.7302 154.85H34.6702C34.6702 155.646 34.3541 156.409 33.7915 156.971C33.2289 157.534 32.4658 157.85 31.6702 157.85H30.6702C29.8745 157.85 29.1114 157.534 28.5488 156.971C27.9862 156.409 27.6702 155.646 27.6702 154.85H27.7302Z" fill="#6C6C6B"></path>
  <path d="M146.32 154.85H153.26C153.26 155.646 152.944 156.409 152.381 156.971C151.819 157.534 151.056 157.85 150.26 157.85H149.26C148.464 157.85 147.701 157.534 147.139 156.971C146.576 156.409 146.26 155.646 146.26 154.85H146.32Z" fill="#6C6C6B"></path>
  <path d="M150.42 70.67H91.2402C89.6717 70.67 88.4001 71.9415 88.4001 73.5099V95.3C88.4001 96.8685 89.6717 98.14 91.2402 98.14H150.42C151.989 98.14 153.26 96.8685 153.26 95.3V73.5099C153.26 71.9415 151.989 70.67 150.42 70.67Z" fill="#BD4444"></path>
  <path d="M148.7 73.89H92.42C91.3486 73.89 90.48 74.7586 90.48 75.83V78.8701C90.48 79.9415 91.3486 80.81 92.42 80.81H148.7C149.771 80.81 150.64 79.9415 150.64 78.8701V75.83C150.64 74.7586 149.771 73.89 148.7 73.89Z" fill="#CC4949"></path>
  <path d="M147.98 82.9901H93.14C91.6709 82.9901 90.48 84.1809 90.48 85.65V93.31C90.48 94.7791 91.6709 95.97 93.14 95.97H147.98C149.449 95.97 150.64 94.7791 150.64 93.31V85.65C150.64 84.1809 149.449 82.9901 147.98 82.9901Z" fill="#CC4949"></path>
  <path d="M149.67 73.89H91.45C90.9142 73.89 90.48 74.3243 90.48 74.86C90.48 75.3958 90.9142 75.83 91.45 75.83H149.67C150.206 75.83 150.64 75.3958 150.64 74.86C150.64 74.3243 150.206 73.89 149.67 73.89Z" fill="#C1BFBE"></path>
  <path d="M149.67 82.9901H91.45C90.9142 82.9901 90.48 83.4243 90.48 83.96C90.48 84.4957 90.9142 84.93 91.45 84.93H149.67C150.206 84.93 150.64 84.4957 150.64 83.96C150.64 83.4243 150.206 82.9901 149.67 82.9901Z" fill="#C1BFBE"></path>
  <path d="M227.6 79.73H201.52V86.69H227.6V79.73Z" fill="#8C8B8B"></path>
  <path d="M227.6 84.42H201.52V91.3799H227.6V84.42Z" fill="#9B9B9B"></path>
  <path d="M228.1 96.17H201.02V103.13H228.1V96.17Z" fill="#8C8B8B"></path>
  <path d="M228.1 100.86H201.02V107.82H228.1V100.86Z" fill="#9B9B9B"></path>
  <path d="M228.69 112.61H200.42V119.57H228.69V112.61Z" fill="#8C8B8B"></path>
  <path d="M228.69 117.3H200.42V124.26H228.69V117.3Z" fill="#9B9B9B"></path>
  <path d="M229.27 129.04H199.84V136H229.27V129.04Z" fill="#8C8B8B"></path>
  <path d="M229.27 133.73H199.84V140.69H229.27V133.73Z" fill="#9B9B9B"></path>
  <path d="M227.47 73.7H201.35L202.3 57.57H226.52L227.47 73.7Z" fill="#8C8B8B"></path>
  <path d="M230.05 156.72L226.3 51.4601C226.233 49.5959 225.444 47.8307 224.101 46.5361C222.758 45.2416 220.965 44.5188 219.1 44.52H209.72C207.855 44.5188 206.062 45.2416 204.719 46.5361C203.376 47.8307 202.587 49.5959 202.52 51.4601L198.76 156.72" stroke="#7F8080" stroke-width="2" stroke-miterlimit="10" stroke-linecap="round"></path>
  <path d="M222.62 59.64H206.21C205.404 59.64 204.75 60.2937 204.75 61.1V61.11C204.75 61.9164 205.404 62.57 206.21 62.57H222.62C223.426 62.57 224.08 61.9164 224.08 61.11V61.1C224.08 60.2937 223.426 59.64 222.62 59.64Z" fill="#9B9B9B"></path>
  <path d="M222.62 64.17H206.21C205.404 64.17 204.75 64.8236 204.75 65.6299V65.64C204.75 66.4463 205.404 67.1 206.21 67.1H222.62C223.426 67.1 224.08 66.4463 224.08 65.64V65.6299C224.08 64.8236 223.426 64.17 222.62 64.17Z" fill="#9B9B9B"></path>
  <path d="M222.62 68.71H206.21C205.404 68.71 204.75 69.3636 204.75 70.17V70.18C204.75 70.9863 205.404 71.64 206.21 71.64H222.62C223.426 71.64 224.08 70.9863 224.08 70.18V70.17C224.08 69.3636 223.426 68.71 222.62 68.71Z" fill="#9B9B9B"></path>
  <path d="M47.9492 115.959C49.1926 101.776 42.953 89.6424 34.0127 88.8586C25.0723 88.0749 16.8168 98.9375 15.5734 113.121C14.33 127.305 20.5696 139.438 29.5099 140.222C38.4503 141.005 46.7058 130.143 47.9492 115.959Z" stroke="#6CA271" stroke-width="1.69" stroke-miterlimit="10"></path>
  <path d="M50.896 116.212C52.1394 102.029 45.8998 89.8954 36.9594 89.1117C28.0191 88.3279 19.7635 99.1906 18.5202 113.374C17.2768 127.558 23.5164 139.691 32.4567 140.475C41.3971 141.258 49.6526 130.396 50.896 116.212Z" stroke="#6CA271" stroke-width="1.69" stroke-miterlimit="10"></path>
  <path d="M47.3294 118.07C50.6773 104.231 46.32 91.3016 37.597 89.1913C28.874 87.081 19.0886 96.5887 15.7407 110.427C12.3927 124.266 16.7501 137.195 25.4731 139.306C34.1961 141.416 43.9815 131.908 47.3294 118.07Z" stroke="#6CA271" stroke-width="1.69" stroke-miterlimit="10"></path>
  <path d="M38.6595 140.581C47.5945 139.74 53.7557 127.567 52.4207 113.391C51.0858 99.2162 42.7602 88.4071 33.8251 89.2485C24.8901 90.09 18.7289 102.263 20.0639 116.439C21.3988 130.614 29.7244 141.423 38.6595 140.581Z" stroke="#6CA271" stroke-width="1.69" stroke-miterlimit="10"></path>
  <path d="M33.8801 89.2499C33.8801 89.2499 44.3001 95.7099 41.7201 122.25" stroke="#6CA271" stroke-width="1.69" stroke-linecap="round" stroke-linejoin="round"></path>
  <path d="M32.6002 85.47C33.3958 85.47 34.1589 85.7861 34.7215 86.3487C35.2841 86.9113 35.6002 87.6744 35.6002 88.47V102.76C35.6002 103.304 35.3842 103.825 34.9998 104.21C34.6153 104.594 34.0939 104.81 33.5502 104.81H31.7302C31.1865 104.81 30.665 104.594 30.2806 104.21C29.8961 103.825 29.6802 103.304 29.6802 102.76V88.47C29.6799 87.6881 29.985 86.9369 30.5304 86.3765C31.0758 85.8162 31.8185 85.4909 32.6002 85.47V85.47Z" fill="#AEADAC"></path>
  <path d="M40.8358 124.907L42.1707 125.024C42.5063 125.053 42.8022 124.805 42.8316 124.47L43.2228 120.007C43.2522 119.671 43.004 119.375 42.6684 119.346L41.3335 119.229C40.9979 119.199 40.702 119.448 40.6726 119.783L40.2814 124.246C40.252 124.582 40.5002 124.877 40.8358 124.907Z" fill="#BF872C"></path>
  <path d="M32.6 102.21C33.2075 102.21 33.7 101.718 33.7 101.11C33.7 100.503 33.2075 100.01 32.6 100.01C31.9925 100.01 31.5 100.503 31.5 101.11C31.5 101.718 31.9925 102.21 32.6 102.21Z" fill="#969698"></path>
  <path d="M145.87 136.74L149.31 136.71" stroke="#222F46" stroke-width="0.62" stroke-miterlimit="10"></path>
  <path d="M59.4402 125.29L75.9102 137.33" stroke="#9498A2" stroke-width="0.42" stroke-linecap="round" stroke-linejoin="round"></path>
  <path d="M67.8101 118.87L75.91 137.33" stroke="#9498A2" stroke-width="0.42" stroke-linecap="round" stroke-linejoin="round"></path>
  <path d="M130.55 96.61L115.98 141.17" stroke="#61C5C3" stroke-width="2.5" stroke-linecap="round" stroke-linejoin="round"></path>
  <path d="M78.3602 117.39L75.9102 137.33" stroke="#9498A2" stroke-width="0.42" stroke-linecap="round" stroke-linejoin="round"></path>
  <path d="M88.2402 121.26L75.9102 137.33" stroke="#9498A2" stroke-width="0.42" stroke-linecap="round" stroke-linejoin="round"></path>
  <path d="M94.8301 129.43L75.9102 137.33" stroke="#9498A2" stroke-width="0.42" stroke-linecap="round" stroke-linejoin="round"></path>
  <path d="M96.3401 139.72L75.9102 137.33" stroke="#9498A2" stroke-width="0.42" stroke-linecap="round" stroke-linejoin="round"></path>
  <path d="M92.3802 149.36L75.9102 137.33" stroke="#9498A2" stroke-width="0.42" stroke-linecap="round" stroke-linejoin="round"></path>
  <path d="M84.0002 155.78L75.9102 137.33" stroke="#9498A2" stroke-width="0.42" stroke-linecap="round" stroke-linejoin="round"></path>
  <path d="M73.46 157.26L75.91 137.33" stroke="#9498A2" stroke-width="0.42" stroke-linecap="round" stroke-linejoin="round"></path>
  <path d="M63.5701 153.39L75.91 137.33" stroke="#9498A2" stroke-width="0.42" stroke-linecap="round" stroke-linejoin="round"></path>
  <path d="M56.99 145.22L75.91 137.33" stroke="#9498A2" stroke-width="0.42" stroke-linecap="round" stroke-linejoin="round"></path>
  <path d="M55.48 134.94L75.91 137.33" stroke="#9498A2" stroke-width="0.42" stroke-linecap="round" stroke-linejoin="round"></path>
  <path d="M133.17 124.87L149.31 137.33" stroke="#9498A2" stroke-width="0.42" stroke-linecap="round" stroke-linejoin="round"></path>
  <path d="M141.71 118.67L149.31 137.33" stroke="#9498A2" stroke-width="0.42" stroke-linecap="round" stroke-linejoin="round"></path>
  <path d="M152.29 117.46L149.31 137.33" stroke="#9498A2" stroke-width="0.42" stroke-linecap="round" stroke-linejoin="round"></path>
  <path d="M162.07 121.58L149.31 137.33" stroke="#9498A2" stroke-width="0.42" stroke-linecap="round" stroke-linejoin="round"></path>
  <path d="M168.43 129.91L149.31 137.33" stroke="#9498A2" stroke-width="0.42" stroke-linecap="round" stroke-linejoin="round"></path>
  <path d="M169.67 140.24L149.31 137.33" stroke="#9498A2" stroke-width="0.42" stroke-linecap="round" stroke-linejoin="round"></path>
  <path d="M165.45 149.78L149.31 137.33" stroke="#9498A2" stroke-width="0.42" stroke-linecap="round" stroke-linejoin="round"></path>
  <path d="M156.9 155.98L149.31 137.33" stroke="#9498A2" stroke-width="0.42" stroke-linecap="round" stroke-linejoin="round"></path>
  <path d="M146.32 157.19L149.31 137.33" stroke="#9498A2" stroke-width="0.42" stroke-linecap="round" stroke-linejoin="round"></path>
  <path d="M136.54 153.07L149.31 137.33" stroke="#9498A2" stroke-width="0.42" stroke-linecap="round" stroke-linejoin="round"></path>
  <path d="M130.18 144.74L149.31 137.33" stroke="#9498A2" stroke-width="0.42" stroke-linecap="round" stroke-linejoin="round"></path>
  <path d="M128.95 134.42L149.31 137.33" stroke="#9498A2" stroke-width="0.42" stroke-linecap="round" stroke-linejoin="round"></path>
  <g opacity="0.6">
    <path opacity="0.6" d="M115.29 141.62C115.369 141.729 115.472 141.818 115.592 141.879C115.712 141.94 115.845 141.971 115.98 141.97C116.147 141.968 116.31 141.92 116.45 141.83L126.45 135.13H129.45C129.669 135.133 129.879 135.049 130.036 134.898C130.194 134.746 130.285 134.538 130.29 134.32C130.289 134.211 130.266 134.104 130.223 134.005C130.18 133.905 130.117 133.815 130.039 133.739C129.961 133.664 129.869 133.605 129.768 133.566C129.667 133.526 129.559 133.507 129.45 133.51H123.04C122.932 133.507 122.825 133.526 122.724 133.566C122.623 133.605 122.532 133.665 122.454 133.74C122.377 133.816 122.316 133.906 122.274 134.005C122.232 134.105 122.21 134.212 122.21 134.32C122.211 134.428 122.234 134.534 122.276 134.633C122.319 134.732 122.38 134.822 122.457 134.897C122.534 134.972 122.626 135.031 122.726 135.071C122.826 135.111 122.932 135.131 123.04 135.13H123.53L115.53 140.5C115.44 140.557 115.362 140.631 115.301 140.719C115.239 140.806 115.196 140.905 115.174 141.009C115.152 141.114 115.15 141.221 115.17 141.326C115.19 141.431 115.231 141.531 115.29 141.62V141.62Z" fill="#316080"></path>
  </g>
  <path d="M149.31 157.41C160.676 157.41 169.89 148.42 169.89 137.33C169.89 126.24 160.676 117.25 149.31 117.25C137.944 117.25 128.73 126.24 128.73 137.33C128.73 148.42 137.944 157.41 149.31 157.41Z" stroke="#273147" stroke-width="2.5" stroke-miterlimit="10"></path>
  <path d="M75.9101 157.41C87.2761 157.41 96.4901 148.42 96.4901 137.33C96.4901 126.24 87.2761 117.25 75.9101 117.25C64.5441 117.25 55.3301 126.24 55.3301 137.33C55.3301 148.42 64.5441 157.41 75.9101 157.41Z" stroke="#273147" stroke-width="2.5" stroke-miterlimit="10"></path>
  <path d="M149.3 132.9C138.1 134.13 126.99 135.12 115.98 134.9" stroke="#3E5270" stroke-width="0.83" stroke-miterlimit="10"></path>
  <path d="M149.68 140.47C139.15 143.85 127.62 145.85 115.98 147.47" stroke="#3E5270" stroke-width="0.83" stroke-miterlimit="10"></path>
  <path d="M149.31 140.49C151.447 140.49 153.18 138.798 153.18 136.71C153.18 134.622 151.447 132.93 149.31 132.93C147.173 132.93 145.44 134.622 145.44 136.71C145.44 138.798 147.173 140.49 149.31 140.49Z" stroke="#222F46" stroke-width="0.94" stroke-miterlimit="10"></path>
  <path d="M149.31 136.71L126.06 108.44L89.3701 104.29L87.3201 109.33L115.98 141.17L149.31 136.71Z" stroke="#61C5C3" stroke-width="2.5" stroke-linecap="round" stroke-linejoin="round"></path>
  <path d="M115.98 147.46C119.537 147.46 122.42 144.644 122.42 141.17C122.42 137.696 119.537 134.88 115.98 134.88C112.423 134.88 109.54 137.696 109.54 141.17C109.54 144.644 112.423 147.46 115.98 147.46Z" stroke="#273147" stroke-width="1.67" stroke-miterlimit="10"></path>
  <path d="M151.21 133.42L149.31 136.71" stroke="#222F46" stroke-width="0.7" stroke-miterlimit="10"></path>
  <path d="M85.04 106.71H80.19C74.95 106.71 74.95 98.14 80.19 98.14H85.04" stroke="#273147" stroke-width="2.5" stroke-linecap="round" stroke-linejoin="round"></path>
  <path d="M133.66 94.3999C132.09 94.7599 128.27 94.4 125.37 94.2C122.47 94 120.37 94.35 120.91 95.58C121.45 96.81 126.48 96.5799 129.36 97.1499C132.24 97.7199 135.01 99.9399 139.73 96.2499C144.45 92.5599 135.19 94.0399 133.66 94.3999Z" fill="#273147"></path>
  <path d="M87.3202 109.33L75.9102 137.33" stroke="#61C5C3" stroke-width="2.5" stroke-linecap="round" stroke-linejoin="round"></path>
  <path d="M151.27 139.97L149.31 136.71" stroke="#222F46" stroke-width="0.7" stroke-miterlimit="10"></path>
  <path d="M85.04 98.15L91.65 98.9901L87.3201 109.33" stroke="#61C5C3" stroke-width="2.5" stroke-linejoin="round"></path>
  <path d="M149.31 138.71C150.442 138.71 151.36 137.815 151.36 136.71C151.36 135.605 150.442 134.71 149.31 134.71C148.178 134.71 147.26 135.605 147.26 136.71C147.26 137.815 148.178 138.71 149.31 138.71Z" fill="white" stroke="#61C5C3" stroke-width="0.83" stroke-miterlimit="10"></path>
  <path d="M75.9101 139.33C77.0423 139.33 77.9601 138.435 77.9601 137.33C77.9601 136.225 77.0423 135.33 75.9101 135.33C74.7779 135.33 73.8601 136.225 73.8601 137.33C73.8601 138.435 74.7779 139.33 75.9101 139.33Z" fill="white" stroke="#61C5C3" stroke-width="0.83" stroke-miterlimit="10"></path>
  <path d="M121.89 138.66L115.98 141.17" stroke="#273147" stroke-width="1.15" stroke-miterlimit="10"></path>
  <path d="M115.25 147.41L115.98 141.17" stroke="#273147" stroke-width="1.15" stroke-miterlimit="10"></path>
  <path d="M110.83 137.41L115.98 141.17" stroke="#273147" stroke-width="1.15" stroke-miterlimit="10"></path>
  <path d="M115.98 141.17L105.8 148.01" stroke="#3E5270" stroke-width="1.67" stroke-linecap="round" stroke-linejoin="round"></path>
  <path d="M108.96 148.01H102.55" stroke="#3E5270" stroke-width="1.67" stroke-linecap="round" stroke-linejoin="round"></path>
  <path d="M75.9102 138.31C76.4624 138.31 76.9102 137.871 76.9102 137.33C76.9102 136.789 76.4624 136.35 75.9102 136.35C75.3579 136.35 74.9102 136.789 74.9102 137.33C74.9102 137.871 75.3579 138.31 75.9102 138.31Z" fill="#273147"></path>
  <path d="M149.31 137.72C149.862 137.72 150.31 137.281 150.31 136.74C150.31 136.199 149.862 135.76 149.31 135.76C148.758 135.76 148.31 136.199 148.31 136.74C148.31 137.281 148.758 137.72 149.31 137.72Z" fill="#273147"></path>
</svg>
