<?xml version="1.0" encoding="UTF-8"?>
<svg xmlns="http://www.w3.org/2000/svg" width="250" height="159" viewBox="0 0 250 159" fill="none">
  <path d="M224.55 158.387C245.93 158.387 249.36 122.927 249.36 71.1671C249.36 19.4071 170.75 -1.343 118.93 0.0670042C67.11 1.477 0 77.687 0 113.597C0 149.507 6.63 158.387 18.53 158.387H224.55Z" fill="#F3F4F7"></path>
  <path d="M106.632 146.231L103.149 158.203H106.209L112.76 146.231H106.632Z" fill="#BA947A"></path>
  <path d="M209.903 146.231L213.386 158.203H210.326L203.775 146.231H209.903Z" fill="#BA947A"></path>
  <path d="M206.568 94.3794H109.974C103.505 94.3794 98.261 99.6237 98.261 106.093V125.95C98.261 132.419 103.505 137.663 109.974 137.663H206.568C213.038 137.663 218.282 132.419 218.282 125.95V106.093C218.282 99.6237 213.038 94.3794 206.568 94.3794Z" fill="#566582"></path>
  <path d="M228.92 117.084C228.23 124.145 224.77 147.352 209.871 147.352H106.671C91.7648 147.352 88.3127 124.177 87.6144 117.084C87.5279 116.208 87.6148 115.324 87.87 114.482C88.1251 113.64 88.5439 112.856 89.1019 112.176C89.66 111.495 90.3464 110.932 91.1223 110.516C91.8983 110.101 92.7485 109.843 93.6242 109.757C94.5 109.67 95.3843 109.757 96.2265 110.012C97.0687 110.267 97.8522 110.686 98.5327 111.244C99.2131 111.802 99.7771 112.488 100.192 113.264C100.607 114.04 100.865 114.89 100.952 115.766C101.736 123.737 104.663 132.626 106.86 133.968H209.73C211.927 132.626 214.822 123.769 215.63 115.766C215.805 113.998 216.675 112.371 218.049 111.244C219.423 110.117 221.189 109.582 222.958 109.757C224.726 109.931 226.353 110.802 227.48 112.176C228.607 113.55 229.142 115.316 228.967 117.084H228.92Z" fill="#56698D"></path>
  <path d="M153.862 123.573H108.123C104.921 123.573 102.325 126.169 102.325 129.371V130.555C102.325 133.757 104.921 136.353 108.123 136.353H153.862C157.064 136.353 159.66 133.757 159.66 130.555V129.371C159.66 126.169 157.064 123.573 153.862 123.573Z" fill="#6076A3"></path>
  <path d="M208.412 123.573H162.673C159.471 123.573 156.875 126.169 156.875 129.371V130.555C156.875 133.757 159.471 136.353 162.673 136.353H208.412C211.614 136.353 214.21 133.757 214.21 130.555V129.371C214.21 126.169 211.614 123.573 208.412 123.573Z" fill="#6076A3"></path>
  <path d="M191.638 104.987C191.637 104.741 191.693 104.499 191.802 104.28C191.911 104.06 192.069 103.869 192.265 103.722C192.461 103.574 192.689 103.475 192.93 103.432C193.172 103.389 193.42 103.403 193.655 103.472C196.402 104.002 199.214 104.11 201.994 103.794C205.839 103.449 209.361 103.01 211.809 102.664C212.161 102.639 212.513 102.694 212.84 102.823C213.168 102.953 213.462 103.154 213.702 103.412C213.941 103.67 214.12 103.979 214.224 104.315C214.328 104.651 214.355 105.007 214.304 105.355C213.473 108.224 213.089 111.204 213.167 114.189C213.41 117.328 213.739 121.25 213.951 123.706C213.98 123.987 213.935 124.27 213.82 124.528C213.705 124.786 213.525 125.009 213.298 125.176C213.07 125.342 212.803 125.446 212.522 125.477C212.242 125.509 211.958 125.466 211.699 125.354C208.323 124.224 204.786 123.652 201.226 123.659C197.875 123.73 194.423 123.988 191.811 124.224C190.242 124.373 188.837 122.576 189.504 121.227C190.611 118.983 191.756 115.986 191.662 113.319C191.576 110.227 191.599 107.026 191.638 104.987Z" fill="#FBC36C"></path>
  <path d="M122.276 104.202C122.277 103.967 122.221 103.736 122.115 103.527C122.009 103.317 121.854 103.136 121.664 102.998C121.474 102.861 121.254 102.77 121.023 102.733C120.791 102.697 120.553 102.716 120.33 102.79C117.853 103.475 115.278 103.741 112.712 103.574C109.182 103.441 105.926 103.19 103.666 102.994C102.317 102.868 101.132 104.477 101.548 105.85C102.485 108.711 103.013 111.69 103.117 114.699C103.117 117.884 103.023 121.815 102.984 124.349C102.954 124.618 102.997 124.89 103.108 125.137C103.219 125.384 103.394 125.597 103.615 125.753C103.836 125.909 104.095 126.004 104.365 126.026C104.635 126.048 104.906 125.997 105.149 125.879C108.147 124.557 111.356 123.776 114.627 123.572C117.702 123.455 120.903 123.518 123.257 123.572C123.617 123.549 123.966 123.44 124.275 123.253C124.583 123.067 124.843 122.809 125.031 122.502C125.22 122.194 125.331 121.846 125.357 121.486C125.383 121.126 125.322 120.765 125.179 120.434C124.034 118.23 122.825 115.272 122.731 112.589C122.653 109.466 122.441 106.234 122.276 104.202Z" fill="#FBC36C"></path>
  <path d="M114.115 115.436C115.06 115.311 115.688 114.159 115.518 112.862C115.347 111.564 114.443 110.613 113.497 110.737C112.552 110.862 111.925 112.014 112.095 113.312C112.266 114.609 113.17 115.56 114.115 115.436Z" fill="#EBB057"></path>
  <path d="M203.736 113.601C203.926 112.306 203.316 111.144 202.373 111.005C201.43 110.867 200.511 111.804 200.321 113.099C200.13 114.393 200.741 115.555 201.684 115.694C202.627 115.832 203.546 114.895 203.736 113.601Z" fill="#EBB057"></path>
  <path d="M167.609 30.9573H167.094C166.513 30.9573 166.041 31.4285 166.041 32.0097V36.9758C166.041 37.557 166.513 38.0282 167.094 38.0282H167.609C168.19 38.0282 168.661 37.557 168.661 36.9758V32.0097C168.661 31.4285 168.19 30.9573 167.609 30.9573Z" fill="#B27C55"></path>
  <path d="M180.666 41.3059H180.15C179.569 41.3059 179.098 41.7771 179.098 42.3583V47.3244C179.098 47.9056 179.569 48.3768 180.15 48.3768H180.666C181.247 48.3768 181.718 47.9056 181.718 47.3244V42.3583C181.718 41.7771 181.247 41.3059 180.666 41.3059Z" fill="#B27C55"></path>
  <path d="M154.629 41.3059H154.114C153.533 41.3059 153.062 41.7771 153.062 42.3583V47.3244C153.062 47.9056 153.533 48.3768 154.114 48.3768H154.629C155.211 48.3768 155.682 47.9056 155.682 47.3244V42.3583C155.682 41.7771 155.211 41.3059 154.629 41.3059Z" fill="#B27C55"></path>
  <path d="M181.751 45.2308V50.3613H153.095V45.2308C155.343 45.2308 157.5 44.3383 159.091 42.7494C160.682 41.1605 161.577 39.0051 161.58 36.7566H173.266C173.269 39.0051 174.164 41.1605 175.755 42.7494C177.346 44.3383 179.503 45.2308 181.751 45.2308V45.2308Z" fill="#DCB091"></path>
  <path d="M178.013 52.7839C178.029 53.0614 178.029 53.3396 178.013 53.6171H174.318C174.318 52.7178 174.141 51.8274 173.797 50.9967C173.452 50.1661 172.947 49.4115 172.311 48.7761C171.675 48.1407 170.919 47.6372 170.088 47.294C169.257 46.9509 168.366 46.775 167.467 46.7764C166.569 46.7764 165.68 46.9535 164.851 47.2974C164.021 47.6413 163.268 48.1453 162.633 48.7807C161.999 49.416 161.496 50.1703 161.154 51.0002C160.811 51.8301 160.636 52.7193 160.637 53.6171H156.921C156.921 53.343 156.921 53.0689 156.921 52.7839C156.921 51.3947 157.194 50.0191 157.726 48.7356C158.258 47.4521 159.037 46.2859 160.019 45.3036C161.001 44.3212 162.168 43.5419 163.451 43.0103C164.735 42.4786 166.11 42.2051 167.5 42.2051C170.294 42.2225 172.968 43.3447 174.938 45.3267C176.907 47.3088 178.013 49.9896 178.013 52.7839Z" fill="#845D40"></path>
  <path d="M181.663 53.6063L184.316 50.9534C184.42 50.8492 184.491 50.7165 184.52 50.5721C184.548 50.4278 184.533 50.2782 184.477 50.1422C184.421 50.0062 184.326 49.8898 184.203 49.8079C184.081 49.726 183.937 49.6821 183.79 49.6817H151.067C150.919 49.6799 150.773 49.7222 150.649 49.8033C150.525 49.8844 150.428 50.0006 150.371 50.1371C150.313 50.2735 150.297 50.4239 150.326 50.5693C150.354 50.7147 150.425 50.8485 150.529 50.9534L153.182 53.6063H181.663Z" fill="#986B4A"></path>
  <path d="M177.991 80.0808H156.866V132.691H177.991V80.0808Z" fill="#B27C55"></path>
  <path d="M181.367 135.245V139.959H153.489V135.245C153.493 134.891 153.568 134.541 153.712 134.216C153.855 133.892 154.063 133.601 154.322 133.359C154.798 132.922 155.42 132.68 156.065 132.68H178.802C179.444 132.683 180.062 132.925 180.534 133.359C180.794 133.601 181.002 133.892 181.145 134.216C181.288 134.541 181.364 134.891 181.367 135.245Z" fill="#DCB091"></path>
  <path d="M181.367 139.97H153.489V154.923C153.492 155.835 153.856 156.709 154.501 157.354C155.146 157.999 156.019 158.362 156.931 158.365H177.925C178.837 158.362 179.711 157.999 180.356 157.354C181.001 156.709 181.364 155.835 181.367 154.923V139.97Z" fill="#B27C55"></path>
  <path d="M179.449 53.6173V75.0383H155.397V53.6173H160.593C160.592 52.7195 160.767 51.8303 161.11 51.0004C161.452 50.1705 161.955 49.4162 162.589 48.7809C163.224 48.1455 163.977 47.6415 164.807 47.2976C165.636 46.9537 166.525 46.7766 167.423 46.7766C168.322 46.7752 169.213 46.9511 170.044 47.2942C170.875 47.6374 171.631 48.141 172.267 48.7763C172.903 49.4117 173.408 50.1663 173.753 50.9969C174.097 51.8276 174.274 52.718 174.274 53.6173H179.449Z" fill="#B27C55"></path>
  <path d="M167.434 54.7135C169.02 54.7135 170.306 53.4275 170.306 51.8413C170.306 50.255 169.02 48.969 167.434 48.969C165.848 48.969 164.562 50.255 164.562 51.8413C164.562 53.4275 165.848 54.7135 167.434 54.7135Z" fill="#BEA066"></path>
  <path d="M167.434 73.4046C172.005 73.4046 175.711 69.6991 175.711 65.1279C175.711 60.5568 172.005 56.8511 167.434 56.8511C162.863 56.8511 159.157 60.5568 159.157 65.1279C159.157 69.6991 162.863 73.4046 167.434 73.4046Z" fill="#D2D1CD"></path>
  <path opacity="0.1" d="M167.434 70.3679C170.328 70.3679 172.674 68.0219 172.674 65.1279C172.674 62.2338 170.328 59.8877 167.434 59.8877C164.54 59.8877 162.194 62.2338 162.194 65.1279C162.194 68.0219 164.54 70.3679 167.434 70.3679Z" stroke="#5C5C5A" stroke-width="0.909899" stroke-miterlimit="10"></path>
  <path d="M155.528 53.6282H153.106V75.0491H155.528V53.6282Z" fill="#DCB091"></path>
  <path d="M181.762 53.6282H179.339V75.0491H181.762V53.6282Z" fill="#DCB091"></path>
  <path d="M167.434 60.2498V65.5009L169.845 67.9236" stroke="#40342C" stroke-width="0.909899" stroke-linecap="round" stroke-linejoin="round"></path>
  <path d="M175.14 91.6797V121.772C175.123 123.802 174.309 125.744 172.874 127.179C171.438 128.615 169.496 129.429 167.467 129.446C165.436 129.432 163.492 128.619 162.056 127.182C160.62 125.746 159.807 123.803 159.793 121.772V91.6578C159.791 90.6451 159.992 89.6423 160.385 88.7087H174.636C175.002 89.6553 175.173 90.6656 175.14 91.6797V91.6797Z" fill="#695649"></path>
  <path d="M167.434 83.9727V116.104" stroke="#40342C" stroke-width="0.909899" stroke-miterlimit="10"></path>
  <path d="M162.939 86.3518V97.1829" stroke="#40342C" stroke-width="0.909899" stroke-miterlimit="10"></path>
  <path d="M162.939 97.1826V101.491" stroke="#BEA066" stroke-width="1.80884" stroke-miterlimit="10" stroke-linecap="round"></path>
  <path d="M171.917 86.3518V104.331" stroke="#40342C" stroke-width="0.909899" stroke-miterlimit="10"></path>
  <path d="M171.917 104.583V108.891" stroke="#BEA066" stroke-width="1.80884" stroke-miterlimit="10" stroke-linecap="round"></path>
  <path d="M167.434 121.849C169.02 121.849 170.306 120.563 170.306 118.976C170.306 117.39 169.02 116.104 167.434 116.104C165.848 116.104 164.562 117.39 164.562 118.976C164.562 120.563 165.848 121.849 167.434 121.849Z" fill="#BEA066"></path>
  <path d="M177.991 80.0813L181.762 75.0493H153.095L156.866 80.0813H177.991Z" fill="#986B4A"></path>
  <path d="M174.548 88.7305C169.879 89.9713 164.966 89.9713 160.297 88.7305C160.875 87.3184 161.86 86.1106 163.127 85.2611C164.394 84.4117 165.886 83.9593 167.412 83.9617C168.43 83.9573 169.439 84.1556 170.381 84.5452C171.322 84.9348 172.176 85.5079 172.893 86.2309C173.599 86.9507 174.161 87.7992 174.548 88.7305Z" fill="#504035"></path>
  <path d="M82.6268 151.864V158.387H85.3017L89.0619 151.864H82.6268Z" fill="#BA947A"></path>
  <path d="M133.8 151.305H78.505C77.1911 151.305 76.1261 152.37 76.1261 153.684V155.855C76.1261 157.169 77.1911 158.234 78.505 158.234H133.8C135.114 158.234 136.179 157.169 136.179 155.855V153.684C136.179 152.37 135.114 151.305 133.8 151.305Z" fill="#B18A6F"></path>
  <path d="M133.8 100.208H78.505C77.1911 100.208 76.1261 101.273 76.1261 102.587V104.758C76.1261 106.072 77.1911 107.137 78.505 107.137H133.8C135.114 107.137 136.179 106.072 136.179 104.758V102.587C136.179 101.273 135.114 100.208 133.8 100.208Z" fill="#B18A6F"></path>
  <path d="M131.838 26.5503H80.4561C79.1847 26.5503 78.154 27.581 78.154 28.8525V31.1766C78.154 32.448 79.1847 33.4787 80.4561 33.4787H131.838C133.109 33.4787 134.14 32.448 134.14 31.1766V28.8525C134.14 27.581 133.109 26.5503 131.838 26.5503Z" fill="#B18A6F"></path>
  <path d="M133.428 107.126H78.8667V151.294H133.428V107.126Z" fill="#C99D7D"></path>
  <path d="M130.764 33.4678H81.5306V100.197H130.764V33.4678Z" fill="#C99D7D"></path>
  <path d="M126.982 137.591H84.4796C83.4927 137.591 82.6927 138.391 82.6927 139.378V145.637C82.6927 146.624 83.4927 147.424 84.4796 147.424H126.982C127.969 147.424 128.769 146.624 128.769 145.637V139.378C128.769 138.391 127.969 137.591 126.982 137.591Z" fill="#DDAE89"></path>
  <path d="M126.982 124.359H84.4796C83.4927 124.359 82.6927 125.159 82.6927 126.146V132.406C82.6927 133.393 83.4927 134.193 84.4796 134.193H126.982C127.969 134.193 128.769 133.393 128.769 132.406V126.146C128.769 125.159 127.969 124.359 126.982 124.359Z" fill="#DDAE89"></path>
  <path d="M101.822 111.193H84.4796C83.4927 111.193 82.6927 111.993 82.6927 112.98V119.239C82.6927 120.226 83.4927 121.026 84.4796 121.026H101.822C102.809 121.026 103.609 120.226 103.609 119.239V112.98C103.609 111.993 102.809 111.193 101.822 111.193Z" fill="#DDAE89"></path>
  <path d="M126.982 111.193H109.639C108.652 111.193 107.852 111.993 107.852 112.98V119.239C107.852 120.226 108.652 121.026 109.639 121.026H126.982C127.969 121.026 128.769 120.226 128.769 119.239V112.98C128.769 111.993 127.969 111.193 126.982 111.193Z" fill="#DDAE89"></path>
  <path d="M93.151 117.507C93.92 117.507 94.5433 116.884 94.5433 116.115C94.5433 115.346 93.92 114.723 93.151 114.723C92.3821 114.723 91.7588 115.346 91.7588 116.115C91.7588 116.884 92.3821 117.507 93.151 117.507Z" fill="#554E47"></path>
  <path d="M118.31 117.507C119.079 117.507 119.703 116.884 119.703 116.115C119.703 115.346 119.079 114.723 118.31 114.723C117.541 114.723 116.918 115.346 116.918 116.115C116.918 116.884 117.541 117.507 118.31 117.507Z" fill="#554E47"></path>
  <path d="M93.151 130.674C93.92 130.674 94.5433 130.05 94.5433 129.281C94.5433 128.512 93.92 127.889 93.151 127.889C92.3821 127.889 91.7588 128.512 91.7588 129.281C91.7588 130.05 92.3821 130.674 93.151 130.674Z" fill="#554E47"></path>
  <path d="M118.31 130.674C119.079 130.674 119.703 130.05 119.703 129.281C119.703 128.512 119.079 127.889 118.31 127.889C117.541 127.889 116.918 128.512 116.918 129.281C116.918 130.05 117.541 130.674 118.31 130.674Z" fill="#554E47"></path>
  <path d="M93.151 143.906C93.92 143.906 94.5433 143.282 94.5433 142.513C94.5433 141.744 93.92 141.121 93.151 141.121C92.3821 141.121 91.7588 141.744 91.7588 142.513C91.7588 143.282 92.3821 143.906 93.151 143.906Z" fill="#554E47"></path>
  <path d="M118.31 143.906C119.079 143.906 119.703 143.282 119.703 142.513C119.703 141.744 119.079 141.121 118.31 141.121C117.541 141.121 116.918 141.744 116.918 142.513C116.918 143.282 117.541 143.906 118.31 143.906Z" fill="#554E47"></path>
  <path d="M104.684 36.3401H85.0386V97.5665H104.684V36.3401Z" fill="#DDAE89"></path>
  <path d="M126.993 36.3401H107.348V97.5665H126.993V36.3401Z" fill="#DDAE89"></path>
  <path d="M101.954 38.7957H87.7902V94.8367H101.954V38.7957Z" fill="#866A55"></path>
  <path d="M101.954 47.7959H87.7902V49.7034H101.954V47.7959Z" fill="#B18A6F"></path>
  <path d="M101.954 65.8843H87.7902V67.7918H101.954V65.8843Z" fill="#B18A6F"></path>
  <path d="M101.954 83.9727H87.7902V85.8801H101.954V83.9727Z" fill="#B18A6F"></path>
  <path d="M124.263 38.7957H110.099V94.8367H124.263V38.7957Z" fill="#866A55"></path>
  <path d="M124.263 47.7959H110.099V49.7034H124.263V47.7959Z" fill="#B18A6F"></path>
  <path d="M124.263 65.8843H110.099V67.7918H124.263V65.8843Z" fill="#B18A6F"></path>
  <path d="M124.263 83.9727H110.099V85.8801H124.263V83.9727Z" fill="#B18A6F"></path>
  <path d="M103.291 61.2144V69.7214" stroke="#554E47" stroke-width="1.47996" stroke-miterlimit="10" stroke-linecap="round"></path>
  <path d="M108.531 61.2144V69.7214" stroke="#554E47" stroke-width="1.47996" stroke-miterlimit="10" stroke-linecap="round"></path>
  <path d="M53.7293 123.098C53.7293 122.221 53.0176 121.509 52.1397 121.509C51.2618 121.509 50.5501 122.221 50.5501 123.098V156.798C50.5501 157.675 51.2618 158.387 52.1397 158.387C53.0176 158.387 53.7293 157.675 53.7293 156.798V123.098Z" fill="#DCB091"></path>
  <path d="M88.7878 111.588C88.7878 111.588 92.4931 90.2104 62.4226 90.2104C32.3521 90.2104 36.1123 111.412 36.1123 111.412L41.177 126.332H84.4136L88.7987 111.588H88.7878Z" fill="#8194BE"></path>
  <path d="M34.0403 151.733V158.365H36.7481L40.5741 151.733H34.0403Z" fill="#BA947A"></path>
  <path d="M90.8269 151.733V158.365H88.1191L84.2932 151.733H90.8269Z" fill="#BA947A"></path>
  <path d="M98.3911 124.951C94.7295 131.649 94.5651 151.722 94.5651 151.722H30.5762C30.5762 151.722 30.4118 131.649 26.7503 124.951C23.0887 118.253 23.0778 112.717 26.7503 110.294C28.7674 108.957 35.2463 107.422 40.3001 116.663C42.7228 121.103 43.249 132.077 43.26 140.573H81.9033C81.9033 132.077 82.4404 121.103 84.8632 116.663C89.917 107.422 96.3959 108.989 98.413 110.294C102.075 112.717 102.064 118.253 98.3911 124.951Z" fill="#899ECA"></path>
  <path d="M82.5172 124.118H42.3391C41.903 124.118 41.4847 124.291 41.1764 124.599C40.868 124.908 40.6947 125.326 40.6947 125.762V140.573H84.1616V125.762C84.1616 125.326 83.9884 124.908 83.68 124.599C83.3716 124.291 82.9533 124.118 82.5172 124.118V124.118Z" fill="#99AFDA"></path>
</svg>
