<?xml version="1.0" encoding="UTF-8"?>
<svg xmlns="http://www.w3.org/2000/svg" width="250" height="159" viewBox="0 0 250 159" fill="none">
  <path d="M217.688 158.337C240.688 158.337 260.908 136.907 241.778 82.527C222.648 28.147 212.978 -20.733 136.778 9.01704C95.3591 25.1878 61.2147 29.4135 37.2316 35.7541C5.26146 44.2062 -2.74559 81.5855 2.96896 114.157C6.98189 137.029 16.3625 158.257 38.198 158.257C78.448 158.257 194.728 158.337 217.688 158.337Z" fill="#F3F4F7"></path>
  <path d="M205.998 51.567H147.338C145.433 51.567 143.888 53.1116 143.888 55.017V154.887C143.888 156.792 145.433 158.337 147.338 158.337H205.998C207.903 158.337 209.448 156.792 209.448 154.887V55.017C209.448 53.1116 207.903 51.567 205.998 51.567Z" fill="#DCB091"></path>
  <path d="M173.668 54.567H148.318C147.766 54.567 147.318 55.0147 147.318 55.567V154.327C147.318 154.879 147.766 155.327 148.318 155.327H173.668C174.22 155.327 174.668 154.879 174.668 154.327V55.567C174.668 55.0147 174.22 54.567 173.668 54.567Z" fill="#EECCB6"></path>
  <path d="M205.018 54.567H179.668C179.116 54.567 178.668 55.0147 178.668 55.567V154.327C178.668 154.879 179.116 155.327 179.668 155.327H205.018C205.57 155.327 206.018 154.879 206.018 154.327V55.567C206.018 55.0147 205.57 54.567 205.018 54.567Z" fill="#EECCB6"></path>
  <path d="M182.128 97.017C183.271 97.017 184.198 96.0903 184.198 94.947C184.198 93.8038 183.271 92.877 182.128 92.877C180.985 92.877 180.058 93.8038 180.058 94.947C180.058 96.0903 180.985 97.017 182.128 97.017Z" fill="#BA947A"></path>
  <path d="M171.198 97.017C172.341 97.017 173.268 96.0903 173.268 94.947C173.268 93.8038 172.341 92.877 171.198 92.877C170.055 92.877 169.128 93.8038 169.128 94.947C169.128 96.0903 170.055 97.017 171.198 97.017Z" fill="#BA947A"></path>
  <path d="M41.2779 152.377C41.2779 150.676 39.9012 149.297 38.2029 149.297C36.5047 149.297 35.1279 150.676 35.1279 152.377V155.187C35.1279 156.888 36.5047 158.267 38.2029 158.267C39.9012 158.267 41.2779 156.888 41.2779 155.187V152.377Z" fill="#846752"></path>
  <path d="M67.7679 152.377C67.7679 150.676 66.3912 149.297 64.6929 149.297C62.9946 149.297 61.6179 150.676 61.6179 152.377V155.187C61.6179 156.888 62.9946 158.267 64.6929 158.267C66.3912 158.267 67.7679 156.888 67.7679 155.187V152.377Z" fill="#846752"></path>
  <path d="M70.1479 125.527H32.1279V155.367H70.1479V125.527Z" fill="#9A785F"></path>
  <path d="M72.728 121.317H29.558C28.3982 121.317 27.458 122.257 27.458 123.417V123.427C27.458 124.587 28.3982 125.527 29.558 125.527H72.728C73.8878 125.527 74.828 124.587 74.828 123.427V123.417C74.828 122.257 73.8878 121.317 72.728 121.317Z" fill="#846752"></path>
  <path d="M62.408 132.567H39.868C38.6474 132.567 37.658 133.556 37.658 134.777V147.997C37.658 149.218 38.6474 150.207 39.868 150.207H62.408C63.6285 150.207 64.618 149.218 64.618 147.997V134.777C64.618 133.556 63.6285 132.567 62.408 132.567Z" fill="#B98F73"></path>
  <path d="M51.1379 139.917C52.3971 139.917 53.4179 138.896 53.4179 137.637C53.4179 136.378 52.3971 135.357 51.1379 135.357C49.8787 135.357 48.8579 136.378 48.8579 137.637C48.8579 138.896 49.8787 139.917 51.1379 139.917Z" fill="#9A785F"></path>
  <path d="M138.588 153.727C138.588 152.026 137.211 150.647 135.513 150.647C133.815 150.647 132.438 152.026 132.438 153.727V155.257C132.438 156.958 133.815 158.337 135.513 158.337C137.211 158.337 138.588 156.958 138.588 155.257V153.727Z" fill="#846752"></path>
  <path d="M220.768 153.727C220.768 152.026 219.391 150.647 217.693 150.647C215.995 150.647 214.618 152.026 214.618 153.727V155.257C214.618 156.958 215.995 158.337 217.693 158.337C219.391 158.337 220.768 156.958 220.768 155.257V153.727Z" fill="#846752"></path>
  <path d="M224.928 107.597H128.388V152.437C128.388 153.233 128.704 153.996 129.267 154.558C129.829 155.121 130.592 155.437 131.388 155.437H221.928C222.724 155.437 223.487 155.121 224.049 154.558C224.612 153.996 224.928 153.233 224.928 152.437V107.597Z" fill="#9A785F"></path>
  <path d="M226.898 103.387H125.778C124.618 103.387 123.678 104.327 123.678 105.487V105.497C123.678 106.657 124.618 107.597 125.778 107.597H226.898C228.058 107.597 228.998 106.657 228.998 105.497V105.487C228.998 104.327 228.058 103.387 226.898 103.387Z" fill="#846752"></path>
  <path d="M157.508 113.427H134.568C133.458 113.427 132.558 114.327 132.558 115.437V124.157C132.558 125.267 133.458 126.167 134.568 126.167H157.508C158.618 126.167 159.518 125.267 159.518 124.157V115.437C159.518 114.327 158.618 113.427 157.508 113.427Z" fill="#B98F73"></path>
  <path d="M146.038 120.747C147.297 120.747 148.318 119.726 148.318 118.467C148.318 117.208 147.297 116.187 146.038 116.187C144.779 116.187 143.758 117.208 143.758 118.467C143.758 119.726 144.779 120.747 146.038 120.747Z" fill="#9A785F"></path>
  <path d="M188.138 113.427H165.198C164.088 113.427 163.188 114.327 163.188 115.437V124.157C163.188 125.267 164.088 126.167 165.198 126.167H188.138C189.248 126.167 190.148 125.267 190.148 124.157V115.437C190.148 114.327 189.248 113.427 188.138 113.427Z" fill="#B98F73"></path>
  <path d="M176.658 120.747C177.917 120.747 178.938 119.726 178.938 118.467C178.938 117.208 177.917 116.187 176.658 116.187C175.399 116.187 174.378 117.208 174.378 118.467C174.378 119.726 175.399 120.747 176.658 120.747Z" fill="#9A785F"></path>
  <path d="M218.758 113.427H195.818C194.708 113.427 193.808 114.327 193.808 115.437V124.157C193.808 125.267 194.708 126.167 195.818 126.167H218.758C219.868 126.167 220.768 125.267 220.768 124.157V115.437C220.768 114.327 219.868 113.427 218.758 113.427Z" fill="#B98F73"></path>
  <path d="M218.758 132.637H195.818C194.708 132.637 193.808 133.537 193.808 134.647V148.267C193.808 149.377 194.708 150.277 195.818 150.277H218.758C219.868 150.277 220.768 149.377 220.768 148.267V134.647C220.768 133.537 219.868 132.637 218.758 132.637Z" fill="#B98F73"></path>
  <path d="M207.288 120.747C208.547 120.747 209.568 119.726 209.568 118.467C209.568 117.208 208.547 116.187 207.288 116.187C206.029 116.187 205.008 117.208 205.008 118.467C205.008 119.726 206.029 120.747 207.288 120.747Z" fill="#9A785F"></path>
  <path d="M207.288 139.987C208.547 139.987 209.568 138.966 209.568 137.707C209.568 136.448 208.547 135.427 207.288 135.427C206.029 135.427 205.008 136.448 205.008 137.707C205.008 138.966 206.029 139.987 207.288 139.987Z" fill="#9A785F"></path>
  <path d="M188.158 132.637H134.538C133.445 132.637 132.558 133.524 132.558 134.617V148.297C132.558 149.391 133.445 150.277 134.538 150.277H188.158C189.252 150.277 190.138 149.391 190.138 148.297V134.617C190.138 133.524 189.252 132.637 188.158 132.637Z" fill="#B98F73"></path>
  <path d="M160.428 139.987C161.687 139.987 162.708 138.966 162.708 137.707C162.708 136.448 161.687 135.427 160.428 135.427C159.169 135.427 158.148 136.448 158.148 137.707C158.148 138.966 159.169 139.987 160.428 139.987Z" fill="#9A785F"></path>
  <path d="M64.7279 152.317H64.5979C62.9355 152.317 61.5879 153.665 61.5879 155.327C61.5879 156.989 62.9355 158.337 64.5979 158.337H64.7279C66.3903 158.337 67.7379 156.989 67.7379 155.327C67.7379 153.665 66.3903 152.317 64.7279 152.317Z" fill="#BA947A"></path>
  <path d="M149.238 152.317H149.108C147.446 152.317 146.098 153.665 146.098 155.327C146.098 156.989 147.446 158.337 149.108 158.337H149.238C150.9 158.337 152.248 156.989 152.248 155.327C152.248 153.665 150.9 152.317 149.238 152.317Z" fill="#BA947A"></path>
  <path d="M143.018 98.197V115.717H70.8081V98.197C70.8081 88.857 143.018 88.857 143.018 98.197Z" fill="#DCB091"></path>
  <path d="M135.868 108.877V115.717H76.688V108.877C76.688 106.357 87.398 103.957 106.048 103.957H106.508C125.148 103.997 135.868 106.357 135.868 108.877Z" fill="#F2F2F2"></path>
  <path d="M143.358 115.717H70.468C69.7165 115.717 68.9956 116.015 68.4633 116.545C67.931 117.076 67.6306 117.796 67.6279 118.547V121.327H146.198V118.547C146.195 117.796 145.895 117.076 145.363 116.545C144.83 116.015 144.109 115.717 143.358 115.717V115.717Z" fill="#F7BFD6"></path>
  <path d="M151.408 121.327H62.4079C61.6547 121.327 60.9323 121.626 60.3997 122.159C59.8671 122.692 59.5679 123.414 59.5679 124.167V140.997H154.238V124.217C154.245 123.841 154.176 123.467 154.037 123.117C153.898 122.767 153.691 122.449 153.427 122.18C153.164 121.911 152.85 121.697 152.503 121.551C152.157 121.404 151.784 121.328 151.408 121.327V121.327Z" fill="#D61A64"></path>
  <path d="M154.308 140.947H59.5281C58.3076 140.947 57.3181 141.936 57.3181 143.157V153.227C57.3181 154.448 58.3076 155.437 59.5281 155.437H154.308C155.529 155.437 156.518 154.448 156.518 153.227V143.157C156.518 141.936 155.529 140.947 154.308 140.947Z" fill="#DCB091"></path>
  <path d="M57.878 121.327H46.418C46.2603 121.327 46.1051 121.287 45.9674 121.21C45.8298 121.133 45.7142 121.022 45.6318 120.887C45.5495 120.753 45.5032 120.599 45.4972 120.442C45.4913 120.284 45.526 120.127 45.598 119.987L45.898 119.407L46.898 117.407C46.974 117.254 47.091 117.126 47.2358 117.036C47.3806 116.946 47.5475 116.898 47.7181 116.897H56.5581C56.7286 116.898 56.8955 116.946 57.0403 117.036C57.1851 117.126 57.302 117.254 57.378 117.407L58.378 119.407L58.668 119.987C58.739 120.125 58.7739 120.279 58.7694 120.434C58.7648 120.589 58.7211 120.741 58.6423 120.875C58.5634 121.009 58.452 121.12 58.3183 121.199C58.1847 121.278 58.0332 121.322 57.878 121.327Z" fill="#DCB091"></path>
  <path d="M63.018 102.907H41.318C40.9693 102.872 40.6329 102.759 40.3334 102.577C40.034 102.395 39.779 102.148 39.5873 101.855C39.3955 101.561 39.2718 101.229 39.2252 100.881C39.1786 100.534 39.2103 100.181 39.318 99.847L42.738 86.687C42.8396 86.223 43.0899 85.805 43.4509 85.4963C43.8119 85.1877 44.2638 85.0053 44.738 84.9771H59.558C60.0332 85.002 60.4868 85.1831 60.8484 85.4923C61.2101 85.8015 61.4595 86.2215 61.558 86.687L64.988 99.847C65.0954 100.178 65.1279 100.529 65.0831 100.875C65.0382 101.22 64.9171 101.551 64.7286 101.844C64.54 102.137 64.2887 102.384 63.9929 102.568C63.6971 102.752 63.3641 102.868 63.018 102.907Z" fill="#D61A64"></path>
  <path d="M54.9279 102.907H49.3879V116.907H54.9279V102.907Z" fill="#DCB091"></path>
</svg>
