<?xml version="1.0" encoding="UTF-8"?>
<svg xmlns="http://www.w3.org/2000/svg" width="252" height="159" viewBox="0 0 252 159" fill="none">
  <path d="M230.985 158.31C247.555 158.31 251.565 103.93 251.565 62.92C251.565 21.91 207.735 0 140.255 0C100.709 0 60.3284 14.7373 33.6732 31.286C7.28984 47.666 -2.14848 80.0882 0.606516 111.02C2.74564 135.038 11.0771 158.24 33.8653 158.24C74.0753 158.24 208.035 158.31 230.985 158.31Z" fill="#F3F4F7"></path>
  <path d="M158.405 151.27H105.165C103.901 151.27 102.875 152.295 102.875 153.56V155.65C102.875 156.915 103.901 157.94 105.165 157.94H158.405C159.67 157.94 160.695 156.915 160.695 155.65V153.56C160.695 152.295 159.67 151.27 158.405 151.27Z" fill="#7E8F9D"></path>
  <path d="M158.405 102.07H105.165C103.901 102.07 102.875 103.095 102.875 104.36V106.45C102.875 107.715 103.901 108.74 105.165 108.74H158.405C159.67 108.74 160.695 107.715 160.695 106.45V104.36C160.695 103.095 159.67 102.07 158.405 102.07Z" fill="#7E8F9D"></path>
  <path d="M158.055 108.74H105.525V151.27H158.055V108.74Z" fill="#8DA2B1"></path>
  <path d="M126.025 112.65H112.505C110.677 112.65 109.195 114.132 109.195 115.96V144.22C109.195 146.048 110.677 147.53 112.505 147.53H126.025C127.853 147.53 129.335 146.048 129.335 144.22V115.96C129.335 114.132 127.853 112.65 126.025 112.65Z" fill="#9EB5C6"></path>
  <path d="M150.255 112.65H136.736C134.907 112.65 133.426 114.132 133.426 115.96V144.22C133.426 146.048 134.907 147.53 136.736 147.53H150.255C152.084 147.53 153.565 146.048 153.565 144.22V115.96C153.565 114.132 152.084 112.65 150.255 112.65Z" fill="#9EB5C6"></path>
  <path d="M125.275 129.43C126.015 129.43 126.615 128.83 126.615 128.09C126.615 127.35 126.015 126.75 125.275 126.75C124.535 126.75 123.935 127.35 123.935 128.09C123.935 128.83 124.535 129.43 125.275 129.43Z" fill="#554E47"></path>
  <path d="M137.496 129.43C138.236 129.43 138.836 128.83 138.836 128.09C138.836 127.35 138.236 126.75 137.496 126.75C136.755 126.75 136.156 127.35 136.156 128.09C136.156 128.83 136.755 129.43 137.496 129.43Z" fill="#554E47"></path>
  <path d="M116.955 96.13H146.615C147.072 96.13 147.509 96.3112 147.832 96.6338C148.154 96.9564 148.335 97.3938 148.335 97.85V98.37C148.335 100.227 147.598 102.007 146.285 103.32C144.972 104.632 143.192 105.37 141.335 105.37H122.335C120.479 105.37 118.698 104.632 117.386 103.32C116.073 102.007 115.335 100.227 115.335 98.37V97.89C115.335 97.4338 115.517 96.9964 115.839 96.6738C116.162 96.3513 116.599 96.17 117.055 96.17L116.955 96.13Z" fill="#F9FAFB"></path>
  <path d="M131.765 82.66H132.835C133.05 82.66 133.256 82.7453 133.408 82.8972C133.56 83.0491 133.645 83.2551 133.645 83.47V87.5601H130.955V83.47C130.955 83.3636 130.976 83.2583 131.017 83.16C131.058 83.0618 131.117 82.9724 131.193 82.8972C131.268 82.822 131.357 82.7624 131.455 82.7217C131.554 82.681 131.659 82.66 131.765 82.66V82.66Z" fill="#C6C6C6"></path>
  <path d="M132.025 87.5501H132.565C132.706 87.5501 132.845 87.5777 132.975 87.6315C133.105 87.6853 133.223 87.7641 133.322 87.8635C133.421 87.9628 133.5 88.0808 133.554 88.2106C133.608 88.3404 133.635 88.4795 133.635 88.62V96.12H130.945V88.62C130.945 88.4787 130.973 88.3388 131.028 88.2083C131.082 88.0778 131.162 87.9594 131.262 87.8599C131.363 87.7604 131.482 87.6818 131.613 87.6286C131.744 87.5754 131.884 87.5488 132.025 87.5501Z" fill="#A8A7A7"></path>
  <path d="M134.235 85.89H130.365C129.675 85.89 129.115 86.4497 129.115 87.14V87.96C129.115 88.6503 129.675 89.21 130.365 89.21H134.235C134.926 89.21 135.485 88.6503 135.485 87.96V87.14C135.485 86.4497 134.926 85.89 134.235 85.89Z" fill="#C6C6C6"></path>
  <path d="M130.405 89.21H134.095C134.095 89.3107 134.055 89.4075 133.984 89.4788C133.913 89.55 133.816 89.59 133.715 89.59H130.775C130.674 89.59 130.578 89.55 130.507 89.4788C130.435 89.4075 130.395 89.3107 130.395 89.21V89.21H130.405Z" fill="#919090"></path>
  <path d="M125.445 92.5H121.855V96.09H125.445V92.5Z" fill="#C6C6C6"></path>
  <path d="M125.355 91.25H121.945C121.597 91.25 121.315 91.5321 121.315 91.88C121.315 92.2279 121.597 92.51 121.945 92.51H125.355C125.703 92.51 125.985 92.2279 125.985 91.88C125.985 91.5321 125.703 91.25 125.355 91.25Z" fill="#B9B9BA"></path>
  <path d="M142.746 92.5H139.156V96.09H142.746V92.5Z" fill="#C6C6C6"></path>
  <path d="M142.655 91.25H139.245C138.898 91.25 138.615 91.5321 138.615 91.88C138.615 92.2279 138.898 92.51 139.245 92.51H142.655C143.003 92.51 143.285 92.2279 143.285 91.88C143.285 91.5321 143.003 91.25 142.655 91.25Z" fill="#B9B9BA"></path>
  <path d="M177.825 154.6H165.125C164.203 154.6 163.455 155.345 163.455 156.265C163.455 157.185 164.203 157.93 165.125 157.93H177.825C178.748 157.93 179.495 157.185 179.495 156.265C179.495 155.345 178.748 154.6 177.825 154.6Z" fill="#C6C6C6"></path>
  <path d="M171.475 156.27V111.93" stroke="#C6C6C6" stroke-width="2" stroke-miterlimit="10" stroke-linecap="round"></path>
  <path fill-rule="evenodd" clip-rule="evenodd" d="M175.315 153.92C175.317 154.007 175.301 154.093 175.268 154.174C175.235 154.255 175.187 154.328 175.125 154.39C175.064 154.451 174.99 154.5 174.91 154.532C174.829 154.565 174.742 154.581 174.655 154.58H168.435C168.337 154.579 168.24 154.558 168.149 154.519C168.059 154.48 167.977 154.424 167.908 154.353C167.839 154.283 167.785 154.199 167.749 154.108C167.712 154.016 167.694 153.919 167.695 153.82V147.24C167.694 147.141 167.712 147.044 167.749 146.952C167.785 146.861 167.839 146.777 167.908 146.707C167.977 146.636 168.059 146.58 168.149 146.541C168.24 146.502 168.337 146.481 168.435 146.48C170.484 146.6 172.537 146.6 174.585 146.48C174.783 146.485 174.97 146.568 175.106 146.71C175.243 146.852 175.318 147.043 175.315 147.24V153.92Z" fill="#F9FAFB"></path>
  <path d="M170.875 147.28H170.725V147.53H170.875V147.28Z" fill="#DCDDDD"></path>
  <path d="M170.875 147.72H170.725V147.97H170.875V147.72Z" fill="#DCDDDD"></path>
  <path d="M170.875 146.84H170.725V147.09H170.875V146.84Z" fill="#DCDDDD"></path>
  <path d="M170.875 147.72H170.725V147.97H170.875V147.72Z" fill="#DCDDDD"></path>
  <path d="M170.875 147.28H170.725V147.53H170.875V147.28Z" fill="#DCDDDD"></path>
  <path d="M170.875 146.84H170.725V147.09H170.875V146.84Z" fill="#DCDDDD"></path>
  <path d="M170.875 148.6H170.725V148.85H170.875V148.6Z" fill="#DCDDDD"></path>
  <path d="M170.875 149.04H170.725V149.29H170.875V149.04Z" fill="#DCDDDD"></path>
  <path d="M170.875 148.16H170.725V148.41H170.875V148.16Z" fill="#DCDDDD"></path>
  <path d="M170.875 149.04H170.725V149.29H170.875V149.04Z" fill="#DCDDDD"></path>
  <path d="M170.875 148.6H170.725V148.85H170.875V148.6Z" fill="#DCDDDD"></path>
  <path d="M170.875 148.16H170.725V148.41H170.875V148.16Z" fill="#DCDDDD"></path>
  <path d="M170.875 149.92H170.725V150.17H170.875V149.92Z" fill="#DCDDDD"></path>
  <path d="M170.875 150.37H170.725V150.62H170.875V150.37Z" fill="#DCDDDD"></path>
  <path d="M170.875 149.49H170.725V149.74H170.875V149.49Z" fill="#DCDDDD"></path>
  <path d="M170.875 150.37H170.725V150.62H170.875V150.37Z" fill="#DCDDDD"></path>
  <path d="M170.875 149.92H170.725V150.17H170.875V149.92Z" fill="#DCDDDD"></path>
  <path d="M170.875 149.49H170.725V149.74H170.875V149.49Z" fill="#DCDDDD"></path>
  <path d="M170.875 151.25H170.725V151.5H170.875V151.25Z" fill="#DCDDDD"></path>
  <path d="M170.875 151.69H170.725V151.94H170.875V151.69Z" fill="#DCDDDD"></path>
  <path d="M170.875 150.81H170.725V151.06H170.875V150.81Z" fill="#DCDDDD"></path>
  <path d="M170.875 151.69H170.725V151.94H170.875V151.69Z" fill="#DCDDDD"></path>
  <path d="M170.875 151.25H170.725V151.5H170.875V151.25Z" fill="#DCDDDD"></path>
  <path d="M170.875 150.81H170.725V151.06H170.875V150.81Z" fill="#DCDDDD"></path>
  <path d="M170.875 152.57H170.725V152.82H170.875V152.57Z" fill="#DCDDDD"></path>
  <path d="M170.875 153.01H170.725V153.26H170.875V153.01Z" fill="#DCDDDD"></path>
  <path d="M170.875 152.13H170.725V152.38H170.875V152.13Z" fill="#DCDDDD"></path>
  <path d="M170.875 153.01H170.725V153.26H170.875V153.01Z" fill="#DCDDDD"></path>
  <path d="M170.875 152.57H170.725V152.82H170.875V152.57Z" fill="#DCDDDD"></path>
  <path d="M170.875 152.13H170.725V152.38H170.875V152.13Z" fill="#DCDDDD"></path>
  <path d="M170.875 153.89H170.725V154.14H170.875V153.89Z" fill="#DCDDDD"></path>
  <path d="M170.875 154.33H170.725V154.58H170.875V154.33Z" fill="#DCDDDD"></path>
  <path d="M170.875 153.45H170.725V153.7H170.875V153.45Z" fill="#DCDDDD"></path>
  <path d="M170.875 154.33H170.725V154.58H170.875V154.33Z" fill="#DCDDDD"></path>
  <path d="M170.875 153.89H170.725V154.14H170.875V153.89Z" fill="#DCDDDD"></path>
  <path d="M170.875 153.45H170.725V153.7H170.875V153.45Z" fill="#DCDDDD"></path>
  <path fill-rule="evenodd" clip-rule="evenodd" d="M174.685 145.8C174.683 145.976 174.611 146.144 174.486 146.267C174.36 146.391 174.191 146.46 174.015 146.46H167.795C167.697 146.459 167.6 146.438 167.509 146.399C167.419 146.36 167.337 146.304 167.268 146.233C167.199 146.163 167.145 146.079 167.109 145.988C167.072 145.896 167.054 145.798 167.055 145.7V139.12C167.054 139.022 167.072 138.924 167.109 138.832C167.145 138.741 167.199 138.657 167.268 138.587C167.337 138.516 167.419 138.46 167.509 138.421C167.6 138.382 167.697 138.361 167.795 138.36C169.844 138.475 171.897 138.475 173.945 138.36C174.044 138.361 174.141 138.382 174.232 138.421C174.322 138.46 174.404 138.516 174.473 138.587C174.542 138.657 174.596 138.741 174.632 138.832C174.669 138.924 174.687 139.022 174.685 139.12V145.8Z" fill="#F9FAFB"></path>
  <path d="M170.235 139.16H170.085V139.41H170.235V139.16Z" fill="#DCDDDD"></path>
  <path d="M170.235 139.59H170.085V139.84H170.235V139.59Z" fill="#DCDDDD"></path>
  <path d="M170.235 138.72H170.085V138.97H170.235V138.72Z" fill="#DCDDDD"></path>
  <path d="M170.235 139.59H170.085V139.84H170.235V139.59Z" fill="#DCDDDD"></path>
  <path d="M170.235 139.16H170.085V139.41H170.235V139.16Z" fill="#DCDDDD"></path>
  <path d="M170.235 138.72H170.085V138.97H170.235V138.72Z" fill="#DCDDDD"></path>
  <path d="M170.235 140.48H170.085V140.73H170.235V140.48Z" fill="#DCDDDD"></path>
  <path d="M170.235 140.92H170.085V141.17H170.235V140.92Z" fill="#DCDDDD"></path>
  <path d="M170.235 140.04H170.085V140.29H170.235V140.04Z" fill="#DCDDDD"></path>
  <path d="M170.235 140.92H170.085V141.17H170.235V140.92Z" fill="#DCDDDD"></path>
  <path d="M170.235 140.48H170.085V140.73H170.235V140.48Z" fill="#DCDDDD"></path>
  <path d="M170.235 140.04H170.085V140.29H170.235V140.04Z" fill="#DCDDDD"></path>
  <path d="M170.235 141.8H170.085V142.05H170.235V141.8Z" fill="#DCDDDD"></path>
  <path d="M170.235 142.24H170.085V142.49H170.235V142.24Z" fill="#DCDDDD"></path>
  <path d="M170.235 141.36H170.085V141.61H170.235V141.36Z" fill="#DCDDDD"></path>
  <path d="M170.235 142.24H170.085V142.49H170.235V142.24Z" fill="#DCDDDD"></path>
  <path d="M170.235 141.8H170.085V142.05H170.235V141.8Z" fill="#DCDDDD"></path>
  <path d="M170.235 141.36H170.085V141.61H170.235V141.36Z" fill="#DCDDDD"></path>
  <path d="M170.235 143.12H170.085V143.37H170.235V143.12Z" fill="#DCDDDD"></path>
  <path d="M170.235 143.56H170.085V143.81H170.235V143.56Z" fill="#DCDDDD"></path>
  <path d="M170.235 142.69H170.085V142.94H170.235V142.69Z" fill="#DCDDDD"></path>
  <path d="M170.235 143.56H170.085V143.81H170.235V143.56Z" fill="#DCDDDD"></path>
  <path d="M170.235 143.12H170.085V143.37H170.235V143.12Z" fill="#DCDDDD"></path>
  <path d="M170.235 142.69H170.085V142.94H170.235V142.69Z" fill="#DCDDDD"></path>
  <path d="M170.235 144.45H170.085V144.7H170.235V144.45Z" fill="#DCDDDD"></path>
  <path d="M170.235 144.89H170.085V145.14H170.235V144.89Z" fill="#DCDDDD"></path>
  <path d="M170.235 144.01H170.085V144.26H170.235V144.01Z" fill="#DCDDDD"></path>
  <path d="M170.235 144.89H170.085V145.14H170.235V144.89Z" fill="#DCDDDD"></path>
  <path d="M170.235 144.45H170.085V144.7H170.235V144.45Z" fill="#DCDDDD"></path>
  <path d="M170.235 144.01H170.085V144.26H170.235V144.01Z" fill="#DCDDDD"></path>
  <path d="M170.235 145.77H170.085V146.02H170.235V145.77Z" fill="#DCDDDD"></path>
  <path d="M170.235 146.21H170.085V146.46H170.235V146.21Z" fill="#DCDDDD"></path>
  <path d="M170.235 145.33H170.085V145.58H170.235V145.33Z" fill="#DCDDDD"></path>
  <path d="M170.235 146.21H170.085V146.46H170.235V146.21Z" fill="#DCDDDD"></path>
  <path d="M170.235 145.77H170.085V146.02H170.235V145.77Z" fill="#DCDDDD"></path>
  <path d="M170.235 145.33H170.085V145.58H170.235V145.33Z" fill="#DCDDDD"></path>
  <path fill-rule="evenodd" clip-rule="evenodd" d="M175.315 137.78C175.315 137.955 175.246 138.123 175.122 138.247C174.998 138.37 174.83 138.44 174.655 138.44H168.435C168.337 138.439 168.24 138.418 168.149 138.379C168.059 138.34 167.977 138.284 167.908 138.213C167.839 138.143 167.785 138.059 167.749 137.968C167.712 137.876 167.694 137.778 167.695 137.68V131.1C167.694 131.001 167.712 130.904 167.749 130.812C167.785 130.721 167.839 130.637 167.908 130.567C167.977 130.496 168.059 130.44 168.149 130.401C168.24 130.362 168.337 130.341 168.435 130.34C170.484 130.455 172.537 130.455 174.585 130.34C174.783 130.345 174.97 130.428 175.106 130.57C175.243 130.712 175.318 130.903 175.315 131.1V137.78Z" fill="#F9FAFB"></path>
  <path d="M172.875 131.14H172.725V131.39H172.875V131.14Z" fill="#DCDDDD"></path>
  <path d="M172.875 131.57H172.725V131.82H172.875V131.57Z" fill="#DCDDDD"></path>
  <path d="M172.875 130.7H172.725V130.95H172.875V130.7Z" fill="#DCDDDD"></path>
  <path d="M172.875 131.57H172.725V131.82H172.875V131.57Z" fill="#DCDDDD"></path>
  <path d="M172.875 131.14H172.725V131.39H172.875V131.14Z" fill="#DCDDDD"></path>
  <path d="M172.875 130.7H172.725V130.95H172.875V130.7Z" fill="#DCDDDD"></path>
  <path d="M172.875 132.46H172.725V132.71H172.875V132.46Z" fill="#DCDDDD"></path>
  <path d="M172.875 132.9H172.725V133.15H172.875V132.9Z" fill="#DCDDDD"></path>
  <path d="M172.875 132.02H172.725V132.27H172.875V132.02Z" fill="#DCDDDD"></path>
  <path d="M172.875 132.9H172.725V133.15H172.875V132.9Z" fill="#DCDDDD"></path>
  <path d="M172.875 132.46H172.725V132.71H172.875V132.46Z" fill="#DCDDDD"></path>
  <path d="M172.875 132.02H172.725V132.27H172.875V132.02Z" fill="#DCDDDD"></path>
  <path d="M172.875 133.78H172.725V134.03H172.875V133.78Z" fill="#DCDDDD"></path>
  <path d="M172.875 134.22H172.725V134.47H172.875V134.22Z" fill="#DCDDDD"></path>
  <path d="M172.875 133.34H172.725V133.59H172.875V133.34Z" fill="#DCDDDD"></path>
  <path d="M172.875 134.22H172.725V134.47H172.875V134.22Z" fill="#DCDDDD"></path>
  <path d="M172.875 133.78H172.725V134.03H172.875V133.78Z" fill="#DCDDDD"></path>
  <path d="M172.875 133.34H172.725V133.59H172.875V133.34Z" fill="#DCDDDD"></path>
  <path d="M172.875 135.1H172.725V135.35H172.875V135.1Z" fill="#DCDDDD"></path>
  <path d="M172.875 135.54H172.725V135.79H172.875V135.54Z" fill="#DCDDDD"></path>
  <path d="M172.875 134.67H172.725V134.92H172.875V134.67Z" fill="#DCDDDD"></path>
  <path d="M172.875 135.54H172.725V135.79H172.875V135.54Z" fill="#DCDDDD"></path>
  <path d="M172.875 135.1H172.725V135.35H172.875V135.1Z" fill="#DCDDDD"></path>
  <path d="M172.875 134.67H172.725V134.92H172.875V134.67Z" fill="#DCDDDD"></path>
  <path d="M172.875 136.43H172.725V136.68H172.875V136.43Z" fill="#DCDDDD"></path>
  <path d="M172.875 136.87H172.725V137.12H172.875V136.87Z" fill="#DCDDDD"></path>
  <path d="M172.875 135.99H172.725V136.24H172.875V135.99Z" fill="#DCDDDD"></path>
  <path d="M172.875 136.87H172.725V137.12H172.875V136.87Z" fill="#DCDDDD"></path>
  <path d="M172.875 136.43H172.725V136.68H172.875V136.43Z" fill="#DCDDDD"></path>
  <path d="M172.875 135.99H172.725V136.24H172.875V135.99Z" fill="#DCDDDD"></path>
  <path d="M172.875 137.75H172.725V138H172.875V137.75Z" fill="#DCDDDD"></path>
  <path d="M172.875 138.19H172.725V138.44H172.875V138.19Z" fill="#DCDDDD"></path>
  <path d="M172.875 137.31H172.725V137.56H172.875V137.31Z" fill="#DCDDDD"></path>
  <path d="M172.875 138.19H172.725V138.44H172.875V138.19Z" fill="#DCDDDD"></path>
  <path d="M172.875 137.75H172.725V138H172.875V137.75Z" fill="#DCDDDD"></path>
  <path d="M172.875 137.31H172.725V137.56H172.875V137.31Z" fill="#DCDDDD"></path>
  <path fill-rule="evenodd" clip-rule="evenodd" d="M174.525 129.66C174.527 129.747 174.511 129.833 174.478 129.914C174.445 129.995 174.397 130.068 174.335 130.13C174.273 130.191 174.2 130.24 174.119 130.272C174.039 130.305 173.952 130.321 173.865 130.32H167.645C167.547 130.319 167.45 130.298 167.359 130.259C167.269 130.22 167.187 130.164 167.118 130.093C167.049 130.023 166.995 129.939 166.959 129.848C166.922 129.756 166.904 129.658 166.905 129.56V122.98C166.904 122.881 166.922 122.784 166.959 122.692C166.995 122.601 167.049 122.517 167.118 122.447C167.187 122.376 167.269 122.32 167.359 122.281C167.45 122.242 167.547 122.221 167.645 122.22C169.694 122.335 171.747 122.335 173.795 122.22C173.992 122.225 174.18 122.308 174.316 122.45C174.453 122.592 174.528 122.783 174.525 122.98V129.66Z" fill="#F9FAFB"></path>
  <path d="M170.085 123.02H169.935V123.27H170.085V123.02Z" fill="#DCDDDD"></path>
  <path d="M170.085 123.46H169.935V123.71H170.085V123.46Z" fill="#DCDDDD"></path>
  <path d="M170.085 122.58H169.935V122.83H170.085V122.58Z" fill="#DCDDDD"></path>
  <path d="M170.085 123.46H169.935V123.71H170.085V123.46Z" fill="#DCDDDD"></path>
  <path d="M170.085 123.02H169.935V123.27H170.085V123.02Z" fill="#DCDDDD"></path>
  <path d="M170.085 122.58H169.935V122.83H170.085V122.58Z" fill="#DCDDDD"></path>
  <path d="M170.085 124.34H169.935V124.59H170.085V124.34Z" fill="#DCDDDD"></path>
  <path d="M170.085 124.78H169.935V125.03H170.085V124.78Z" fill="#DCDDDD"></path>
  <path d="M170.085 123.9H169.935V124.15H170.085V123.9Z" fill="#DCDDDD"></path>
  <path d="M170.085 124.78H169.935V125.03H170.085V124.78Z" fill="#DCDDDD"></path>
  <path d="M170.085 124.34H169.935V124.59H170.085V124.34Z" fill="#DCDDDD"></path>
  <path d="M170.085 123.9H169.935V124.15H170.085V123.9Z" fill="#DCDDDD"></path>
  <path d="M170.085 125.66H169.935V125.91H170.085V125.66Z" fill="#DCDDDD"></path>
  <path d="M170.085 126.1H169.935V126.35H170.085V126.1Z" fill="#DCDDDD"></path>
  <path d="M170.085 125.23H169.935V125.48H170.085V125.23Z" fill="#DCDDDD"></path>
  <path d="M170.085 126.1H169.935V126.35H170.085V126.1Z" fill="#DCDDDD"></path>
  <path d="M170.085 125.66H169.935V125.91H170.085V125.66Z" fill="#DCDDDD"></path>
  <path d="M170.085 125.23H169.935V125.48H170.085V125.23Z" fill="#DCDDDD"></path>
  <path d="M170.085 126.99H169.935V127.24H170.085V126.99Z" fill="#DCDDDD"></path>
  <path d="M170.085 127.43H169.935V127.68H170.085V127.43Z" fill="#DCDDDD"></path>
  <path d="M170.085 126.55H169.935V126.8H170.085V126.55Z" fill="#DCDDDD"></path>
  <path d="M170.085 127.43H169.935V127.68H170.085V127.43Z" fill="#DCDDDD"></path>
  <path d="M170.085 126.99H169.935V127.24H170.085V126.99Z" fill="#DCDDDD"></path>
  <path d="M170.085 126.55H169.935V126.8H170.085V126.55Z" fill="#DCDDDD"></path>
  <path d="M170.085 128.31H169.935V128.56H170.085V128.31Z" fill="#DCDDDD"></path>
  <path d="M170.085 128.75H169.935V129H170.085V128.75Z" fill="#DCDDDD"></path>
  <path d="M170.085 127.87H169.935V128.12H170.085V127.87Z" fill="#DCDDDD"></path>
  <path d="M170.085 128.75H169.935V129H170.085V128.75Z" fill="#DCDDDD"></path>
  <path d="M170.085 128.31H169.935V128.56H170.085V128.31Z" fill="#DCDDDD"></path>
  <path d="M170.085 127.87H169.935V128.12H170.085V127.87Z" fill="#DCDDDD"></path>
  <path d="M170.085 129.63H169.935V129.88H170.085V129.63Z" fill="#DCDDDD"></path>
  <path d="M170.085 130.07H169.935V130.32H170.085V130.07Z" fill="#DCDDDD"></path>
  <path d="M170.085 129.19H169.935V129.44H170.085V129.19Z" fill="#DCDDDD"></path>
  <path d="M170.085 130.07H169.935V130.32H170.085V130.07Z" fill="#DCDDDD"></path>
  <path d="M170.085 129.63H169.935V129.88H170.085V129.63Z" fill="#DCDDDD"></path>
  <path d="M170.085 129.19H169.935V129.44H170.085V129.19Z" fill="#DCDDDD"></path>
  <path d="M96.4755 35.8201H49.0754V94.58H96.4755V35.8201Z" fill="#8DA2B1"></path>
  <path d="M71.3753 38.58H52.4553V89.89H71.3753V38.58Z" fill="#9EB5C6"></path>
  <path d="M92.8553 38.58H73.9353V89.89H92.8553V38.58Z" fill="#9EB5C6"></path>
  <path d="M68.7255 49.61H55.0955V51.4501H68.7255V49.61Z" fill="#B18A6F"></path>
  <path d="M68.7255 67.02H55.0955V68.86H68.7255V67.02Z" fill="#B18A6F"></path>
  <path d="M68.7255 84.4401H55.0955V86.28H68.7255V84.4401Z" fill="#B18A6F"></path>
  <path d="M90.2054 49.61H76.5754V51.4501H90.2054V49.61Z" fill="#B18A6F"></path>
  <path d="M90.2054 67.02H76.5754V68.86H90.2054V67.02Z" fill="#B18A6F"></path>
  <path d="M90.2054 84.4401H76.5754V86.28H90.2054V84.4401Z" fill="#B18A6F"></path>
  <path d="M70.0254 62.53V70.72" stroke="#554E47" stroke-width="1.42" stroke-miterlimit="10" stroke-linecap="round"></path>
  <path d="M75.0754 62.53V70.72" stroke="#554E47" stroke-width="1.42" stroke-miterlimit="10" stroke-linecap="round"></path>
  <path d="M68.7255 40.9401H55.0955V87.25H68.7255V40.9401Z" fill="#DEDEDD"></path>
  <path d="M90.2054 40.9401H76.5754V87.25H90.2054V40.9401Z" fill="#DEDEDD"></path>
  <path d="M97.8954 93.47H47.6655C46.6493 93.47 45.8254 94.2939 45.8254 95.3101V96.22C45.8254 97.2362 46.6493 98.0601 47.6655 98.0601H97.8954C98.9117 98.0601 99.7355 97.2362 99.7355 96.22V95.3101C99.7355 94.2939 98.9117 93.47 97.8954 93.47Z" fill="#7E8F9D"></path>
  <path d="M97.8954 31.23H47.6655C46.6493 31.23 45.8254 32.0539 45.8254 33.0701V33.98C45.8254 34.9962 46.6493 35.8201 47.6655 35.8201H97.8954C98.9117 35.8201 99.7355 34.9962 99.7355 33.98V33.0701C99.7355 32.0539 98.9117 31.23 97.8954 31.23Z" fill="#7E8F9D"></path>
  <path d="M232.785 77.98C232.785 76.9859 231.979 76.1801 230.985 76.1801C229.991 76.1801 229.185 76.9859 229.185 77.98V156.13C229.185 157.124 229.991 157.93 230.985 157.93C231.979 157.93 232.785 157.124 232.785 156.13V77.98Z" fill="#AFAFB0"></path>
  <path d="M187.785 77.98C187.785 76.9859 186.979 76.1801 185.985 76.1801C184.991 76.1801 184.185 76.9859 184.185 77.98V156.13C184.185 157.124 184.991 157.93 185.985 157.93C186.979 157.93 187.785 157.124 187.785 156.13V77.98Z" fill="#AFAFB0"></path>
  <path d="M229.185 81.87H187.785V84.33H229.185V81.87Z" fill="#A2A2A3"></path>
  <path d="M229.185 86.3201H187.785V88.78H229.185V86.3201Z" fill="#A2A2A3"></path>
  <path d="M229.185 90.77H187.785V93.23H229.185V90.77Z" fill="#A2A2A3"></path>
  <path d="M229.185 99.6801H187.785V102.14H229.185V99.6801Z" fill="#A2A2A3"></path>
  <path d="M229.185 104.13H187.785V106.59H229.185V104.13Z" fill="#A2A2A3"></path>
  <path d="M229.185 108.58H187.785V111.04H229.185V108.58Z" fill="#A2A2A3"></path>
  <path d="M229.185 117.49H187.785V119.95H229.185V117.49Z" fill="#A2A2A3"></path>
  <path d="M229.185 121.94H187.785V124.4H229.185V121.94Z" fill="#A2A2A3"></path>
  <path d="M229.185 126.39H187.785V128.85H229.185V126.39Z" fill="#A2A2A3"></path>
  <path d="M229.185 135.3H187.785V137.76H229.185V135.3Z" fill="#A2A2A3"></path>
  <path d="M229.185 139.75H187.785V142.21H229.185V139.75Z" fill="#A2A2A3"></path>
  <path d="M229.185 144.21H187.785V146.67H229.185V144.21Z" fill="#A2A2A3"></path>
  <path d="M236.195 144.69H232.785V146.55H236.195V144.69Z" fill="#A2A2A3"></path>
  <path d="M234.985 143.31H237.405V147.83C237.405 148.047 237.319 148.256 237.165 148.41C237.011 148.564 236.803 148.65 236.585 148.65H235.795C235.578 148.65 235.369 148.564 235.216 148.41C235.062 148.256 234.975 148.047 234.975 147.83V143.31H234.985Z" fill="#AFAFB0"></path>
  <path d="M237.185 140.18H235.215C234.856 140.18 234.565 140.471 234.565 140.83V142.8C234.565 143.159 234.856 143.45 235.215 143.45H237.185C237.544 143.45 237.835 143.159 237.835 142.8V140.83C237.835 140.471 237.544 140.18 237.185 140.18Z" fill="#939393"></path>
  <path d="M86.1555 157.59L79.6155 147.52L83.9655 145.18L88.7955 156.17L86.1555 157.59Z" fill="#8C8165"></path>
  <path d="M92.6254 157.99H82.3254C82.2219 157.99 82.1227 157.949 82.0496 157.876C81.9765 157.803 81.9354 157.703 81.9354 157.6C81.9354 157.326 81.9894 157.054 82.0945 156.8C82.1995 156.547 82.3535 156.316 82.5475 156.122C82.7416 155.928 82.972 155.774 83.2256 155.669C83.4791 155.564 83.7509 155.51 84.0254 155.51H90.9254C91.1998 155.51 91.4716 155.564 91.7252 155.669C91.9788 155.774 92.2092 155.928 92.4032 156.122C92.5973 156.316 92.7513 156.547 92.8563 156.8C92.9613 157.054 93.0154 157.326 93.0154 157.6V157.6C93.0154 157.703 92.9743 157.803 92.9012 157.876C92.828 157.949 92.7288 157.99 92.6254 157.99V157.99Z" fill="#A2A2A3"></path>
  <path d="M37.7354 156.1L42.5653 145.12L46.9153 147.46L40.3753 157.53L37.7354 156.1Z" fill="#8C8165"></path>
  <path d="M18.2954 114.32C15.1554 113.2 12.2954 116.91 13.8154 120.27C19.2354 132.61 33.0654 150.27 50.1454 150.27H79.3754C90.8254 150.27 101.615 145.03 102.865 123.32C102.995 121.03 101.295 119.14 99.3054 119.32C72.8654 121.95 39.1954 121.73 18.2954 114.32Z" fill="#F9FAFB"></path>
  <path d="M35.6054 155.45H42.5054C42.7798 155.45 43.0516 155.504 43.3052 155.609C43.5587 155.714 43.7892 155.868 43.9833 156.062C44.1774 156.256 44.3312 156.487 44.4363 156.74C44.5413 156.994 44.5954 157.266 44.5954 157.54C44.5954 157.591 44.5853 157.642 44.5657 157.689C44.5461 157.737 44.5174 157.78 44.4811 157.816C44.4449 157.852 44.4019 157.881 44.3546 157.9C44.3073 157.92 44.2566 157.93 44.2054 157.93H33.9054C33.8542 157.93 33.8035 157.92 33.7562 157.9C33.7088 157.881 33.6659 157.852 33.6296 157.816C33.5934 157.78 33.5647 157.737 33.5451 157.689C33.5255 157.642 33.5154 157.591 33.5154 157.54V157.54C33.5154 156.986 33.7356 156.454 34.1276 156.062C34.5195 155.67 35.0511 155.45 35.6054 155.45Z" fill="#A2A2A3"></path>
  <path d="M132.295 79.15C149.107 79.15 162.735 65.5215 162.735 48.71C162.735 31.8984 149.107 18.27 132.295 18.27C115.484 18.27 101.855 31.8984 101.855 48.71C101.855 65.5215 115.484 79.15 132.295 79.15Z" fill="#D6D6D5" stroke="#9EB5C6" stroke-width="4" stroke-miterlimit="10"></path>
  <path d="M87.4754 48.71L79.5054 77.13" stroke="#EAEAE8" stroke-width="2" stroke-linecap="round" stroke-linejoin="round"></path>
  <path d="M151.635 39.58L132.515 62.08" stroke="#EAEAE8" stroke-width="2" stroke-linecap="round" stroke-linejoin="round"></path>
  <path d="M149.385 48.89L130.275 71.38" stroke="#EAEAE8" stroke-width="2" stroke-linecap="round" stroke-linejoin="round"></path>
  <path d="M65.9055 48.71L57.9255 77.13" stroke="#EAEAE8" stroke-width="2" stroke-linecap="round" stroke-linejoin="round"></path>
</svg>
