<?xml version="1.0" encoding="UTF-8"?>
<svg xmlns="http://www.w3.org/2000/svg" width="250" height="159" viewBox="0 0 250 159" fill="none">
  <path d="M223.572 158.34C244.792 158.34 247.492 121.88 249.362 70C251.232 18.12 169.822 0 135.842 0C101.862 0 0.00201449 25.8299 0.00201449 66.1199C0.00201449 106.41 -0.937977 158.23 37.792 158.23C76.522 158.23 223.562 158.34 223.562 158.34" fill="#F3F4F7"></path>
  <path d="M79.3652 149.922C79.3652 148.187 77.9607 146.78 76.2281 146.78C74.4955 146.78 73.091 148.187 73.091 149.922V155.085C73.091 156.82 74.4955 158.227 76.2281 158.227C77.9607 158.227 79.3652 156.82 79.3652 155.085V149.922Z" fill="#ADADAD"></path>
  <path d="M133.956 149.922C133.956 148.187 132.552 146.78 130.819 146.78C129.086 146.78 127.682 148.187 127.682 149.922V155.085C127.682 156.82 129.086 158.227 130.819 158.227C132.552 158.227 133.956 156.82 133.956 155.085V149.922Z" fill="#ADADAD"></path>
  <path d="M138.037 33.5686V155.268H69V33.5686C68.9971 32.2035 69.3188 30.8574 69.9386 29.641C70.6633 28.2099 71.7707 27.0078 73.1377 26.1684C74.5048 25.3291 76.0778 24.8857 77.6819 24.887H129.365C130.968 24.8852 132.54 25.3287 133.905 26.1682C135.271 27.0077 136.376 28.21 137.098 29.641C137.718 30.8574 138.04 32.2035 138.037 33.5686V33.5686Z" fill="#CECECD"></path>
  <path d="M129.039 59.0841H131.069V48.6882H129.039" stroke="#666667" stroke-width="1.5303" stroke-linecap="round" stroke-linejoin="round"></path>
  <path d="M129.039 95.2808H131.069V84.8748H129.039" stroke="#666667" stroke-width="1.5303" stroke-linecap="round" stroke-linejoin="round"></path>
  <path d="M95.1476 75.6826H80.8444V100.718H95.1476V75.6826Z" fill="#9D9D9D"></path>
  <path d="M88.4551 91.4041H87.4349C86.7882 91.4041 86.1681 91.1471 85.7108 90.6898C85.2535 90.2325 84.9966 89.6124 84.9966 88.9657V75.7031H90.8934V88.9657C90.8934 89.6124 90.6365 90.2325 90.1792 90.6898C89.722 91.1471 89.1018 91.4041 88.4551 91.4041V91.4041Z" fill="#666667"></path>
  <path d="M92.4033 97.5662H83.4153C82.9871 97.5662 82.64 97.911 82.64 98.3364C82.64 98.7618 82.9871 99.1067 83.4153 99.1067H92.4033C92.8315 99.1067 93.1786 98.7618 93.1786 98.3364C93.1786 97.911 92.8315 97.5662 92.4033 97.5662Z" fill="#666667"></path>
  <path d="M138.037 66.613H69V67.8883H138.037V66.613Z" fill="#787879"></path>
  <path d="M161.399 69.2352L165.725 67.1948C167.531 66.2766 174.519 72.3978 169.734 75.0605" stroke="#5F6578" stroke-width="2.15262" stroke-linecap="round" stroke-linejoin="round"></path>
  <path d="M159.481 58.8494H158.431C157.89 58.8494 157.451 59.2879 157.451 59.8288V60.4409C157.451 60.9818 157.89 61.4203 158.431 61.4203H159.481C160.022 61.4203 160.461 60.9818 160.461 60.4409V59.8288C160.461 59.2879 160.022 58.8494 159.481 58.8494Z" fill="#AEADAD"></path>
  <path d="M165.531 83.4567C165.367 83.4572 165.207 83.4104 165.069 83.3217C164.932 83.233 164.823 83.1062 164.756 82.9568C164.663 82.7498 164.655 82.5143 164.736 82.302C164.816 82.0897 164.977 81.9178 165.184 81.8243L170 79.682C170.207 79.5889 170.442 79.5815 170.654 79.6618C170.867 79.7421 171.039 79.9036 171.132 80.1104C171.178 80.2135 171.203 80.3246 171.206 80.4374C171.208 80.5502 171.189 80.6625 171.148 80.7677C171.107 80.8729 171.046 80.9691 170.968 81.0506C170.89 81.1322 170.797 81.1976 170.693 81.2429L165.878 83.3852C165.769 83.4341 165.651 83.4585 165.531 83.4567V83.4567Z" fill="#AEADAD"></path>
  <path d="M153.88 66.3172L151.738 72.1731L146.78 67.9598C146.493 67.7123 146.279 67.3922 146.158 67.0333C146.038 66.6743 146.016 66.2894 146.095 65.9192C146.174 65.5489 146.352 65.2068 146.609 64.9286C146.865 64.6504 147.192 64.4465 147.555 64.338C147.748 64.286 147.947 64.2585 148.147 64.2563C148.409 64.2573 148.668 64.3058 148.912 64.3993L153.88 66.3172Z" fill="#5F6578"></path>
  <path d="M168.806 79.3453C159.053 85.2522 149.106 79.3453 149.106 79.3453L151.738 72.2039L153.881 66.3479L154.075 65.8276C154.238 65.3768 154.536 64.9871 154.928 64.7115C155.321 64.4359 155.788 64.2878 156.268 64.2871H161.634C162.114 64.2878 162.581 64.4359 162.974 64.7115C163.366 64.9871 163.664 65.3768 163.828 65.8276L168.806 79.3453Z" fill="#CEE18C"></path>
  <path d="M169.347 83.9361L167.959 85.8236C167.743 86.1193 167.461 86.3601 167.135 86.5267C166.809 86.6933 166.448 86.7809 166.082 86.7825H151.799C151.433 86.7826 151.072 86.6956 150.745 86.5289C150.419 86.3622 150.137 86.1205 149.922 85.8236L148.535 83.9361C148.305 83.6248 148.156 83.2617 148.101 82.879C148.046 82.4964 148.086 82.1061 148.218 81.7428L149.075 79.3962C149.075 79.3962 159.022 85.3032 168.775 79.3962L169.632 81.7428C169.77 82.1035 169.815 82.4925 169.766 82.8753C169.716 83.258 169.572 83.6225 169.347 83.9361V83.9361Z" fill="#5F6578"></path>
  <path d="M161.94 64.2564H155.962C155.125 64.2564 154.636 62.9403 155.207 62.1445C155.638 61.5602 156.203 61.0879 156.855 60.7666C157.506 60.4454 158.225 60.2848 158.951 60.2981C159.653 60.2873 160.347 60.4369 160.982 60.7358C161.617 61.0346 162.175 61.4746 162.613 62.0222C163.246 62.8486 162.828 64.2564 161.94 64.2564Z" fill="#5F6578"></path>
  <path d="M140.669 87.813H192.118C193.514 87.813 194.853 88.3676 195.84 89.3548C196.827 90.3421 197.382 91.6811 197.382 93.0772V158.37H135.405V93.0772C135.405 91.6811 135.959 90.3421 136.947 89.3548C137.934 88.3676 139.273 87.813 140.669 87.813Z" fill="#5F667B"></path>
  <path d="M188.843 98.4126H143.954C142.472 98.4126 141.271 99.6139 141.271 101.096V115.307C141.271 116.789 142.472 117.99 143.954 117.99H188.843C190.325 117.99 191.526 116.789 191.526 115.307V101.096C191.526 99.6139 190.325 98.4126 188.843 98.4126Z" fill="#363635" stroke="#9A9A99" stroke-width="1.86697" stroke-linejoin="round"></path>
  <path d="M148.861 100.331H184.282" stroke="#BFBEBD" stroke-width="3.0606" stroke-linecap="round" stroke-linejoin="round"></path>
  <path d="M188.231 123.428H144.566C142.746 123.428 141.271 124.903 141.271 126.723V149.606C141.271 151.426 142.746 152.902 144.566 152.902H188.231C190.051 152.902 191.526 151.426 191.526 149.606V126.723C191.526 124.903 190.051 123.428 188.231 123.428Z" fill="#363635" stroke="#9A9A99" stroke-width="2.29545" stroke-linejoin="round"></path>
  <path d="M148.861 125.346H184.282" stroke="#BFBEBD" stroke-width="3.0606" stroke-linecap="round" stroke-linejoin="round"></path>
  <path d="M146.749 95.1583C148.085 95.1583 149.167 94.0757 149.167 92.7404C149.167 91.405 148.085 90.3225 146.749 90.3225C145.414 90.3225 144.331 91.405 144.331 92.7404C144.331 94.0757 145.414 95.1583 146.749 95.1583Z" fill="#BFBEBD"></path>
  <path d="M146.749 91.0979V94.3625" stroke="#A2A2A1" stroke-width="0.836564" stroke-miterlimit="10" stroke-linecap="round"></path>
  <path d="M153.126 95.1583C154.461 95.1583 155.543 94.0757 155.543 92.7404C155.543 91.405 154.461 90.3225 153.126 90.3225C151.79 90.3225 150.708 91.405 150.708 92.7404C150.708 94.0757 151.79 95.1583 153.126 95.1583Z" fill="#BFBEBD"></path>
  <path d="M153.126 91.0979V94.3625" stroke="#A2A2A1" stroke-width="0.836564" stroke-miterlimit="10" stroke-linecap="round"></path>
  <path d="M179.671 95.1583C181.007 95.1583 182.089 94.0757 182.089 92.7404C182.089 91.405 181.007 90.3225 179.671 90.3225C178.336 90.3225 177.253 91.405 177.253 92.7404C177.253 94.0757 178.336 95.1583 179.671 95.1583Z" fill="#BFBEBD"></path>
  <path d="M179.671 91.0979V94.3625" stroke="#A2A2A1" stroke-width="0.836564" stroke-miterlimit="10" stroke-linecap="round"></path>
  <path d="M186.047 95.1583C187.383 95.1583 188.465 94.0757 188.465 92.7404C188.465 91.405 187.383 90.3225 186.047 90.3225C184.712 90.3225 183.63 91.405 183.63 92.7404C183.63 94.0757 184.712 95.1583 186.047 95.1583Z" fill="#BFBEBD"></path>
  <path d="M186.048 91.0979V94.3625" stroke="#A2A2A1" stroke-width="0.836564" stroke-miterlimit="10" stroke-linecap="round"></path>
  <path d="M171.306 89.4045H161.838C161.286 89.4045 160.838 89.8522 160.838 90.4043V93.2405C160.838 93.7927 161.286 94.2403 161.838 94.2403H171.306C171.858 94.2403 172.305 93.7927 172.305 93.2405V90.4043C172.305 89.8522 171.858 89.4045 171.306 89.4045Z" fill="#363635"></path>
  <path d="M163.644 96.6174C164.162 96.6174 164.582 96.1972 164.582 95.6788C164.582 95.1605 164.162 94.7402 163.644 94.7402C163.125 94.7402 162.705 95.1605 162.705 95.6788C162.705 96.1972 163.125 96.6174 163.644 96.6174Z" fill="#BFBEBD"></path>
  <path d="M166.572 96.6174C167.09 96.6174 167.51 96.1972 167.51 95.6788C167.51 95.1605 167.09 94.7402 166.572 94.7402C166.054 94.7402 165.633 95.1605 165.633 95.6788C165.633 96.1972 166.054 96.6174 166.572 96.6174Z" fill="#BFBEBD"></path>
  <path d="M169.5 96.6174C170.018 96.6174 170.438 96.1972 170.438 95.6788C170.438 95.1605 170.018 94.7402 169.5 94.7402C168.981 94.7402 168.561 95.1605 168.561 95.6788C168.561 96.1972 168.981 96.6174 169.5 96.6174Z" fill="#BFBEBD"></path>
  <path d="M144.015 86.7418H162.226C162.496 86.7418 162.756 86.8493 162.947 87.0406C163.139 87.2319 163.246 87.4914 163.246 87.762H142.954C142.954 87.6245 142.982 87.4884 143.036 87.3619C143.089 87.2354 143.168 87.1211 143.267 87.0258C143.366 86.9305 143.484 86.8562 143.612 86.8074C143.741 86.7586 143.878 86.7363 144.015 86.7418Z" fill="#9A9A99"></path>
  <path d="M170.561 86.7418H188.771C189.042 86.7418 189.301 86.8493 189.493 87.0406C189.684 87.2319 189.791 87.4914 189.791 87.762H169.5C169.5 87.6245 169.527 87.4884 169.581 87.3619C169.635 87.2354 169.714 87.1211 169.813 87.0258C169.912 86.9305 170.029 86.8562 170.158 86.8074C170.286 86.7586 170.423 86.7363 170.561 86.7418Z" fill="#9A9A99"></path>
</svg>
